<svg xmlns="http://www.w3.org/2000/svg" xmlns:xlink="http://www.w3.org/1999/xlink" viewBox="0 0 281.49 281.49"><defs><style>.cls-1{fill:#fff;}.cls-2{fill:url(#linear-gradient);}</style><linearGradient id="linear-gradient" x1="127.67" y1="136.04" x2="145.23" y2="136.04" gradientUnits="userSpaceOnUse"><stop offset="0.04"/><stop offset="0.4" stop-color="#020202"/><stop offset="0.53" stop-color="#090909"/><stop offset="0.62" stop-color="#141414"/><stop offset="0.69" stop-color="#252525"/><stop offset="0.76" stop-color="#3b3b3b"/><stop offset="0.81" stop-color="#575757"/><stop offset="0.86" stop-color="#777"/><stop offset="0.91" stop-color="#9d9d9d"/><stop offset="0.95" stop-color="#c8c8c8"/><stop offset="0.99" stop-color="#f6f6f6"/><stop offset="1" stop-color="#fff"/></linearGradient></defs><g id="Layer_2" data-name="Layer 2"><g id="Layer_1-2" data-name="Layer 1"><rect class="cls-1" width="281.49" height="281.49"/><circle class="cls-2" cx="136.45" cy="136.04" r="8.78"/><path d="M144.62,142.67q-8.09,4.67-16.35,9c-5.5,2.91-11.06,5.72-16.7,8.35s-11.35,5.16-17.22,7.31a80.07,80.07,0,0,1-9,2.79,28.22,28.22,0,0,1-4.74.74,10.07,10.07,0,0,1-2.55-.13,5,5,0,0,1-1.35-.46,7,7,0,0,1-.66-.45,7.1,7.1,0,0,1-.56-.67,7.18,7.18,0,0,1-.32-.81,7,7,0,0,1-.09-.8,5.35,5.35,0,0,1,.23-1.43,10.34,10.34,0,0,1,1.08-2.35,29.24,29.24,0,0,1,2.9-3.9A80,80,0,0,1,86,153.14c4.66-4.23,9.59-8.11,14.62-11.84S110.77,134,116,130.56q3.92-2.58,7.88-5.09c2.64-1.67,5.4-3.16,8.06-4.79q8-4.91,16.21-9.48c5.46-3.07,11-6.06,16.62-8.86s11.35-5.51,17.35-7.85a82.93,82.93,0,0,1,9.37-3.08,32.13,32.13,0,0,1,5.4-.91,14.34,14.34,0,0,1,1.62,0l.89.06a10,10,0,0,1,1,.16,6.39,6.39,0,0,1,1.13.3,9.45,9.45,0,0,1,1.27.54,10.26,10.26,0,0,1,1.41,1,9.37,9.37,0,0,1,1.29,1.58,9.67,9.67,0,0,1,.75,1.89,10.06,10.06,0,0,1,.19,1.72,8.55,8.55,0,0,1-.13,1.4,6.4,6.4,0,0,1-.27,1.14,10.43,10.43,0,0,1-.33,1l-.37.83c-.25.58-.51,1-.77,1.45a34.54,34.54,0,0,1-3.28,4.49,78.18,78.18,0,0,1-7,7.07c-2.41,2.18-4.87,4.24-7.35,6.25s-5,3.89-7.61,5.76-5.17,3.66-7.8,5.42-5.28,3.47-7.95,5.15-5.37,3.29-8.09,4.89a4.2,4.2,0,0,1-2.31.74,11.62,11.62,0,0,1-3-.49,20.6,20.6,0,0,0-3.09-.62A4.11,4.11,0,0,0,144.62,142.67Zm-.15-.27a4.14,4.14,0,0,0,1.61-1.86,17.82,17.82,0,0,0,.93-3,12.34,12.34,0,0,1,1-2.87,4,4,0,0,1,1.68-1.67c2.62-1.61,5.2-3.27,7.78-4.94,5.15-3.32,10.25-6.72,15.24-10.23,2.49-1.75,5-3.52,7.39-5.34s4.83-3.63,7.12-5.53a85.12,85.12,0,0,0,6.41-5.85,24.15,24.15,0,0,0,2.44-2.87c.12-.2.32-.45.38-.58l.13-.23c.05-.07,0-.07.05-.11s.06-.07,0,0,0,.08,0,.24a1.36,1.36,0,0,0,.08.56,2,2,0,0,0,.34.81,1.82,1.82,0,0,0,.56.67,1.28,1.28,0,0,0,.45.32c.15.06.12.07.2.08s.05,0,0,0,0,0-.13,0l-.28,0a6.56,6.56,0,0,0-.71,0,23.15,23.15,0,0,0-3.83.36,74.74,74.74,0,0,0-8.54,2.1c-5.77,1.75-11.52,3.92-17.21,6.24s-11.31,4.88-16.88,7.57-11.05,5.56-16.5,8.5c-2.71,1.49-5.33,3.15-8,4.71s-5.34,3.13-8,4.74q-7.93,4.83-15.6,10.06c-5.09,3.51-10.1,7.13-14.85,11.05a78.24,78.24,0,0,0-6.76,6.2,27.55,27.55,0,0,0-2.82,3.46,8.06,8.06,0,0,0-1,1.83,2,2,0,0,0-.09,1.49,2,2,0,0,0,1.31.76,8.29,8.29,0,0,0,2.09.2,27.88,27.88,0,0,0,4.49-.53A80.46,80.46,0,0,0,94,166.24c5.89-1.93,11.65-4.29,17.34-6.77s11.28-5.24,16.81-8.09S139.08,145.5,144.47,142.4Z"/><path d="M172.59,105.75c-3.12-5.38-6.16-10.81-9.06-16.32s-5.77-11-8.43-16.67-5.24-11.32-7.4-17.2a82.66,82.66,0,0,1-2.82-9,28.66,28.66,0,0,1-.75-4.79,10.24,10.24,0,0,1,.14-2.62,5.29,5.29,0,0,1,.48-1.42c.16-.24.31-.49.49-.72s.48-.41.73-.6a7.53,7.53,0,0,1,.89-.36,8.55,8.55,0,0,1,.87-.09,5.35,5.35,0,0,1,1.5.25,10.47,10.47,0,0,1,2.41,1.11,30,30,0,0,1,3.94,2.92A83.68,83.68,0,0,1,162.31,47c4.22,4.68,8.13,9.59,11.85,14.64s7.25,10.2,10.64,15.46,6.63,10.61,9.78,16,6.1,10.92,9,16.48,5.53,11.22,8.07,17,4.81,11.58,6.76,17.57a82.74,82.74,0,0,1,2.44,9.19,29.87,29.87,0,0,1,.57,4.87,10.28,10.28,0,0,1-.25,2.65,5.17,5.17,0,0,1-.53,1.42,8.58,8.58,0,0,1-.52.71,7.21,7.21,0,0,1-.75.59,8.57,8.57,0,0,1-.89.33,8.1,8.1,0,0,1-.86.06,5,5,0,0,1-1.47-.29,10.25,10.25,0,0,1-2.34-1.18,29.88,29.88,0,0,1-3.77-3.05,79,79,0,0,1-6.4-6.95c-4-4.81-7.63-9.9-11.19-15S185.5,127,182.19,121.76,175.69,111.15,172.59,105.75Zm.27-.15c3.14,5.36,6.37,10.68,9.73,15.91s6.91,10.34,10.57,15.36,7.56,9.86,11.7,14.45a78.4,78.4,0,0,0,6.52,6.5,27.8,27.8,0,0,0,3.59,2.67,8.22,8.22,0,0,0,1.85.85,1.7,1.7,0,0,0,1.3,0,1.75,1.75,0,0,0,.53-1.16,8,8,0,0,0,.09-2,27.11,27.11,0,0,0-.71-4.36,79.3,79.3,0,0,0-2.73-8.73c-2.13-5.76-4.69-11.39-7.32-17s-5.47-11.09-8.36-16.56-5.91-10.88-9-16.23-6.25-10.68-9.55-15.92S174.43,69,170.9,63.91s-7.11-10.11-11-14.83a79.36,79.36,0,0,0-6.19-6.73,27.74,27.74,0,0,0-3.43-2.79,7.9,7.9,0,0,0-1.77-.92,1.81,1.81,0,0,0-1.27-.12c-.23.08-.49.54-.63,1.14a7.63,7.63,0,0,0-.19,2,27.35,27.35,0,0,0,.51,4.44,80.6,80.6,0,0,0,2.37,8.9c1.91,5.88,4.18,11.67,6.67,17.36s5.17,11.3,8,16.83S169.78,100.19,172.86,105.6Z"/><path d="M109,154.49c3.13,5.37,6.17,10.81,9.07,16.31s5.77,11,8.42,16.68,5.24,11.31,7.41,17.19a80,80,0,0,1,2.81,9,28.5,28.5,0,0,1,.76,4.79,10.16,10.16,0,0,1-.14,2.61,5.18,5.18,0,0,1-.48,1.42c-.16.25-.32.49-.49.72a8.89,8.89,0,0,1-.74.61,8.48,8.48,0,0,1-.88.35,8.55,8.55,0,0,1-.87.09,5,5,0,0,1-1.5-.25,10.53,10.53,0,0,1-2.42-1.1,30.64,30.64,0,0,1-3.93-2.93,83.7,83.7,0,0,1-6.74-6.71c-4.21-4.69-8.12-9.6-11.84-14.64s-7.25-10.21-10.64-15.47-6.63-10.6-9.79-16-6.09-10.91-9-16.47-5.54-11.23-8.07-17-4.81-11.58-6.76-17.58A82.19,82.19,0,0,1,60.81,107a29.62,29.62,0,0,1-.56-4.87,10.63,10.63,0,0,1,.24-2.64A5.62,5.62,0,0,1,61,98.05c.16-.24.33-.48.51-.7s.5-.41.75-.59a7.34,7.34,0,0,1,.89-.33,8.5,8.5,0,0,1,.87-.07,5.12,5.12,0,0,1,1.47.29,9.88,9.88,0,0,1,2.34,1.19,29,29,0,0,1,3.77,3,81.93,81.93,0,0,1,6.4,6.94c4,4.82,7.63,9.9,11.19,15s6.92,10.36,10.22,15.63S106,149.09,109,154.49Zm-.26.15q-4.71-8.05-9.73-15.91c-3.37-5.23-6.91-10.34-10.57-15.36s-7.56-9.86-11.7-14.45a77.13,77.13,0,0,0-6.53-6.51,27,27,0,0,0-3.58-2.66,8.18,8.18,0,0,0-1.85-.85,1.71,1.71,0,0,0-1.3,0A1.79,1.79,0,0,0,63,100a8.13,8.13,0,0,0-.08,2,27.07,27.07,0,0,0,.7,4.36,79.82,79.82,0,0,0,2.73,8.72c2.13,5.77,4.7,11.39,7.33,17s5.46,11.09,8.36,16.55,5.91,10.88,9,16.23,6.25,10.69,9.54,15.92,6.63,10.45,10.16,15.53,7.11,10.1,11,14.83a79.09,79.09,0,0,0,6.19,6.72,28.52,28.52,0,0,0,3.42,2.8,8.4,8.4,0,0,0,1.78.92,1.79,1.79,0,0,0,1.27.11,1.69,1.69,0,0,0,.63-1.13,7.7,7.7,0,0,0,.19-2,26.43,26.43,0,0,0-.52-4.44,79,79,0,0,0-2.36-8.9c-1.91-5.88-4.19-11.67-6.67-17.36s-5.17-11.3-8-16.83S111.86,160,108.78,154.64Z"/><path d="M153.66,136a223.37,223.37,0,0,1-2,31.39,91.65,91.65,0,0,1-3.47,15.6,34,34,0,0,1-3.51,7.62,14.63,14.63,0,0,1-3.09,3.53,9.06,9.06,0,0,1-5.2,2.09,9.57,9.57,0,0,1-5.54-1.61,16.28,16.28,0,0,1-3.69-3.3,35.18,35.18,0,0,1-4.72-7.44A79.38,79.38,0,0,1,117,168.17a142.76,142.76,0,0,1,0-64.41,79.52,79.52,0,0,1,5.47-15.67,35.18,35.18,0,0,1,4.72-7.44,16.28,16.28,0,0,1,3.69-3.3,9.57,9.57,0,0,1,5.54-1.61,9,9,0,0,1,5.2,2.09,14.44,14.44,0,0,1,3.09,3.53A33.84,33.84,0,0,1,148.18,89a91.44,91.44,0,0,1,3.47,15.6A223.28,223.28,0,0,1,153.66,136Zm-.14,0A131.18,131.18,0,0,0,150,104.91a72.31,72.31,0,0,0-5.12-14.55,27.94,27.94,0,0,0-4-6.12,9.19,9.19,0,0,0-2.39-2,3.19,3.19,0,0,0-2.08-.5,3.59,3.59,0,0,0-1.73,1,9.84,9.84,0,0,0-1.8,2.27,29.77,29.77,0,0,0-2.76,6.31A89,89,0,0,0,127,105.72,220.69,220.69,0,0,0,125.06,136,220.44,220.44,0,0,0,127,166.21a89.14,89.14,0,0,0,3.14,14.47,29.77,29.77,0,0,0,2.76,6.31,9.84,9.84,0,0,0,1.8,2.27,3.59,3.59,0,0,0,1.73,1,3.25,3.25,0,0,0,2.08-.5,9.39,9.39,0,0,0,2.39-2,28,28,0,0,0,4-6.13A72.22,72.22,0,0,0,150,167,131.18,131.18,0,0,0,153.52,136Z"/></g></g></svg>