<svg xmlns="http://www.w3.org/2000/svg" viewBox="0 0 281.37 281.37"><defs><style>.cls-1{fill:#efd317;}.cls-2{fill:#fff;}.cls-3{fill:#e60600;}</style></defs><g id="Layer_2" data-name="Layer 2"><g id="Layer_1-2" data-name="Layer 1"><rect width="281.37" height="281.37"/><path class="cls-1" d="M150.2,123.31H127.75a2.78,2.78,0,0,1-2.77-2.77v-1a13.82,13.82,0,0,1,13.79-13.79h.41A13.82,13.82,0,0,1,153,119.58v1A2.77,2.77,0,0,1,150.2,123.31Z"/><rect class="cls-2" x="145.42" y="154.44" width="3.65" height="37.96" rx="1.82"/><rect class="cls-2" x="130.36" y="153.58" width="3.65" height="37.96" rx="1.82"/><path class="cls-2" d="M157.1,115.74a89.1,89.1,0,0,1,10.44-21.1A26.66,26.66,0,0,1,209,91.2l27.37,28.72a26.71,26.71,0,0,1,7.37,18.42v22.2a26.69,26.69,0,0,1-6.79,17.78L226.32,190.2a26.7,26.7,0,0,1-39.08.82l-.32-.34a26.36,26.36,0,0,1-7.32-22,19,19,0,0,0-3.77-14.26,18.65,18.65,0,0,0-6.22-5.17,26.82,26.82,0,0,1-13-32C156.77,116.73,156.93,116.23,157.1,115.74Z"/><path class="cls-2" d="M124,111.84a89,89,0,0,0-7.68-16.72A29.47,29.47,0,0,0,69.65,89.9l-6.32,6.63a94,94,0,0,0-25.94,64.85h0A14.29,14.29,0,0,0,41,170.9l22.64,25.36a14.3,14.3,0,0,0,20.92.43L98.81,182a14.19,14.19,0,0,0,3.41-14.13,18.85,18.85,0,0,1,14.29-24.3,14.36,14.36,0,0,0,11.24-16.26A89.6,89.6,0,0,0,124,111.84Z"/><path class="cls-3" d="M168.53,135.23v9.1A14.58,14.58,0,0,1,154,158.88H124a14.6,14.6,0,0,1-14.55-14.55v-9.1A14.58,14.58,0,0,1,124,120.68h30A14.58,14.58,0,0,1,168.53,135.23Z"/><path class="cls-2" d="M144,110a41.64,41.64,0,0,1,5-24.42,51.25,51.25,0,0,1,17.55-18.62,46.92,46.92,0,0,1,11.92-5.42,42.25,42.25,0,0,1,6.48-1.3,52,52,0,0,1,6.45-.29c2.11,0,4.18.19,6.18.34a43,43,0,0,0,5.66.22c1.73-.13,3-.44,3.95-1.75s1.09-3.38.89-5.43l.2-.07a9.75,9.75,0,0,1,1.32,2.95,7.08,7.08,0,0,1,.06,3.55,7.48,7.48,0,0,1-.79,1.8,6,6,0,0,1-.63.8,4.44,4.44,0,0,1-.73.71q-.39.31-.81.6c-.28.17-.56.3-.85.45a11.19,11.19,0,0,1-1.71.7,33.29,33.29,0,0,1-6.49,1.13l-6,.52c-1.94.17-3.84.44-5.7.73a50.54,50.54,0,0,0-5.44,1.28,47.11,47.11,0,0,0-10.3,4.47,55.62,55.62,0,0,0-16.89,15.33,50.76,50.76,0,0,0-3.15,4.88,53.59,53.59,0,0,0-2.56,5.28c-.75,1.83-1.38,3.72-2,5.64s-1,3.91-1.41,5.92Z"/><path class="cls-2" d="M133.46,110c-.39-2-.86-4-1.4-5.92s-1.22-3.81-2-5.64a51.5,51.5,0,0,0-2.57-5.28,50.67,50.67,0,0,0-3.14-4.88,55.65,55.65,0,0,0-16.9-15.33,46.7,46.7,0,0,0-10.3-4.47,49.45,49.45,0,0,0-5.44-1.28c-1.86-.29-3.75-.56-5.7-.73l-6-.52a33.16,33.16,0,0,1-6.49-1.13,11.73,11.73,0,0,1-1.72-.7c-.28-.15-.56-.28-.84-.45s-.55-.39-.82-.6a4,4,0,0,1-.72-.71,4.71,4.71,0,0,1-.63-.8,6.51,6.51,0,0,1-.74-5.35,10.26,10.26,0,0,1,1.32-2.95l.21.07c-.2,2,0,4.13.88,5.43s2.23,1.62,4,1.75a42.8,42.8,0,0,0,5.65-.22c2-.15,4.08-.3,6.19-.34a52.08,52.08,0,0,1,6.45.29,42.12,42.12,0,0,1,6.47,1.3,47.15,47.15,0,0,1,11.93,5.42,51.25,51.25,0,0,1,17.55,18.62,41.79,41.79,0,0,1,5,24.42Z"/><path class="cls-2" d="M136.28,117.44a7.92,7.92,0,0,0,2.8.11,7.29,7.29,0,0,0,2.6-1.07l0,0a3.21,3.21,0,0,1-2.47,2,3,3,0,0,1-3-1.09Z"/><path class="cls-2" d="M153.73,139.93H142.19a1.57,1.57,0,0,1-1.56-1.56v-6.06a1.57,1.57,0,0,1,1.56-1.55h5.48a7.64,7.64,0,0,1,7.62,7.61h0A1.56,1.56,0,0,1,153.73,139.93Z"/><path class="cls-2" d="M147.67,150.76h-5.48a1.57,1.57,0,0,1-1.56-1.55v-6.07a1.57,1.57,0,0,1,1.56-1.55h11.54a1.56,1.56,0,0,1,1.56,1.55h0A7.64,7.64,0,0,1,147.67,150.76Z"/><path class="cls-2" d="M137.42,139.93H125.88a1.57,1.57,0,0,1-1.56-1.56h0a7.64,7.64,0,0,1,7.62-7.61h5.48a1.56,1.56,0,0,1,1.56,1.55v6.06A1.56,1.56,0,0,1,137.42,139.93Z"/><path class="cls-2" d="M137.42,150.76h-5.48a7.64,7.64,0,0,1-7.62-7.62h0a1.57,1.57,0,0,1,1.56-1.55h11.54a1.56,1.56,0,0,1,1.56,1.55v6.07A1.56,1.56,0,0,1,137.42,150.76Z"/></g></g></svg>