<svg xmlns="http://www.w3.org/2000/svg" xmlns:xlink="http://www.w3.org/1999/xlink" viewBox="0 0 281.37 281.37"><defs><style>.cls-1{fill:#f5ff2e;}.cls-2{fill:#fff;}.cls-3{fill:url(#linear-gradient);}.cls-4{stroke:#000;stroke-miterlimit:10;stroke-width:0.57px;}</style><linearGradient id="linear-gradient" x1="102.7" y1="112.82" x2="25.41" y2="49.02" gradientUnits="userSpaceOnUse"><stop offset="0" stop-color="#fff"/><stop offset="0" stop-color="#c3c4df" stop-opacity="0.8"/><stop offset="0" stop-color="#8e90c3" stop-opacity="0.62"/><stop offset="0" stop-color="#6567ae" stop-opacity="0.48"/><stop offset="0" stop-color="#47499e" stop-opacity="0.38"/><stop offset="0" stop-color="#353794" stop-opacity="0.32"/><stop offset="0" stop-color="#2e3191" stop-opacity="0.3"/><stop offset="0.14" stop-color="#1b1db0" stop-opacity="0.18"/><stop offset="0.32" stop-color="#0c0cc8" stop-opacity="0.08"/><stop offset="0.53" stop-color="#0303d7" stop-opacity="0.02"/><stop offset="0.88" stop-color="#0000db" stop-opacity="0"/></linearGradient></defs><g id="Layer_2" data-name="Layer 2"><g id="Layer_1-2" data-name="Layer 1"><rect width="281.37" height="281.37"/><path class="cls-1" d="M124.71,228.67C119,225.2,147.7,176.24,138,169c-4.42-3.3-14.82,3.61-23.78,9.67-32.39,21.92-48.17,48.07-50.39,46.76-4-2.33,47.9-84.35,34.27-96.34-10.51-9.24-52.75,29.4-60.47,21.36-6.05-6.3,12.29-38,33.86-57.24,5.07-4.53,10.92-8.91,22.17-17.33a219,219,0,0,1,25.8-16.53c8.83-4.83,15.51-7.66,22.17-5.64,2.59.79,2.8,1.59,6.05,2.82,7.44,2.83,14.41,1.71,19.35.81,26.09-4.77,34.45-10.52,43.13-5.65a21.41,21.41,0,0,1,6.45,6c.82,1.06,9.73,12.72,6,22.57-2.83,7.58-10.35,6.71-16.12,17.34a37.08,37.08,0,0,0-3.23,8.87c-4.8,19.53,3.62,32.54.81,45.55-2.45,11.36-11.3,12.64-31.84,29.42C140.86,207.17,128.64,231.05,124.71,228.67Z"/><circle cx="148.69" cy="113.98" r="35.27"/><circle class="cls-2" cx="148.69" cy="113.98" r="19.15"/><circle cx="149.3" cy="114.18" r="11.29"/><path class="cls-3" d="M141.64,53.72c2.75,4.27-14.17,18.41-44.42,46.63C59.11,135.9,42.52,154,37.64,150.46c-.59-.42-2.07-1.93,0-10.48,4.06-16.74,13.89-28,33.86-46.76,25.74-24.2,40.66-34.9,60.06-39.5C137.67,52.27,140.7,52.26,141.64,53.72Z"/><path class="cls-2" d="M207.35,71.46c-1.64,3.08-2.17,8.23.8,10.48s8.36.29,10.89-2.83c3.21-4,3-10.85-.41-12.89S209.59,67.23,207.35,71.46Z"/><path class="cls-4" d="M202,64.19c.86-.93,6.19-6.79,6.06-10.25-.19-5.17-12.44-2.37-14.05,1.19C192.46,58.45,199.91,63,202,64.19Z"/></g></g></svg>