<svg xmlns="http://www.w3.org/2000/svg" viewBox="0 0 281.37 281.37"><defs><style>.cls-1{fill:#fff;}.cls-2{fill:#450300;}.cls-3{fill:#610300;}.cls-4{fill:#7d0300;}.cls-5{fill:#930300;}.cls-6{fill:#b90300;}.cls-7{fill:#cb0003;}.cls-8{fill:#750022;}.cls-9{fill:#750043;}.cls-10{fill:#750069;}.cls-11{fill:#75008d;}.cls-12{fill:#d6c900;}.cls-13{fill:#d6c942;}.cls-14{fill:#d6c965;}.cls-15{fill:#d6c982;}.cls-16{fill:#d6c9a0;}.cls-17{fill:#030062;}.cls-18{fill:#03008c;}.cls-19{fill:#0300a3;}.cls-20{fill:#0300b2;}.cls-21{fill:#0300c9;}.cls-22{fill:#032700;}.cls-23{fill:#2b2700;}.cls-24{fill:#442700;}.cls-25{fill:#672700;}.cls-26{fill:#992700;}</style></defs><g id="Layer_2" data-name="Layer 2"><g id="Layer_1-2" data-name="Layer 1"><rect class="cls-1" width="281.37" height="281.37"/><rect class="cls-2" x="40.31" y="203.6" width="37.05" height="37.05" rx="18.52"/><path class="cls-3" d="M77.36,162.72v37.05h0a37.05,37.05,0,0,1-37-37.05H77.36Z"/><rect class="cls-4" x="40.31" y="122.16" width="37.05" height="37.05" rx="9.65"/><rect class="cls-5" x="40.31" y="82.23" width="37.05" height="37.05" rx="9.65"/><rect class="cls-6" x="40.31" y="41.35" width="37.05" height="37.05" rx="18.52"/><path class="cls-7" d="M118.24,240.33h-37V203.28h0A37.05,37.05,0,0,1,118.24,240.33Z"/><rect class="cls-8" x="81.19" y="162.4" width="37.05" height="37.05" rx="18.52"/><path class="cls-9" d="M118.24,121.84v37h0a37.05,37.05,0,0,1-37-37h37.05Z"/><rect class="cls-10" x="81.19" y="81.91" width="37.05" height="37.05" rx="18.52"/><rect class="cls-11" x="81.19" y="41.03" width="37.05" height="37.05" rx="9.65"/><rect class="cls-12" x="123.19" y="203.44" width="36.73" height="36.73" rx="9.19"/><path class="cls-1" d="M150.73,203.6a9,9,0,0,1,9,9V231a9,9,0,0,1-9,9H132.38a9,9,0,0,1-9-9V212.63a9,9,0,0,1,9-9h18.35m0-.32H132.38a9.35,9.35,0,0,0-9.35,9.35V231a9.35,9.35,0,0,0,9.35,9.35h18.35a9.34,9.34,0,0,0,9.35-9.35V212.63a9.35,9.35,0,0,0-9.35-9.35Z"/><path class="cls-13" d="M123.19,199.29V162.56a36.93,36.93,0,0,1,36.73,36.73Z"/><path class="cls-1" d="M123.35,162.72a36.77,36.77,0,0,1,36.41,36.41H123.35V162.72m-.32-.32v37h37.05a37.05,37.05,0,0,0-37.05-37Z"/><path class="cls-14" d="M141.56,158.73a18.37,18.37,0,1,1,18.36-18.37A18.39,18.39,0,0,1,141.56,158.73Z"/><path class="cls-1" d="M141.56,122.16a18.21,18.21,0,1,1-18.21,18.2,18.22,18.22,0,0,1,18.21-18.2m0-.32a18.53,18.53,0,1,0,18.52,18.52,18.53,18.53,0,0,0-18.52-18.52Z"/><path class="cls-15" d="M159.92,118.8a36.93,36.93,0,0,1-36.73-36.73h36.73Z"/><path class="cls-1" d="M159.76,82.23v36.41a36.77,36.77,0,0,1-36.41-36.41h36.41m.32-.32H123A37,37,0,0,0,160.08,119v-37Z"/><rect class="cls-16" x="123.19" y="41.19" width="36.73" height="36.73" rx="9.49"/><path class="cls-1" d="M150.43,41.35a9.34,9.34,0,0,1,9.33,9.33V68.43a9.33,9.33,0,0,1-9.33,9.33H132.68a9.34,9.34,0,0,1-9.33-9.33V50.68a9.35,9.35,0,0,1,9.33-9.33h17.75m0-.32H132.68A9.65,9.65,0,0,0,123,50.68V68.43a9.65,9.65,0,0,0,9.65,9.65h17.75a9.65,9.65,0,0,0,9.65-9.65V50.68A9.65,9.65,0,0,0,150.43,41Z"/><rect class="cls-17" x="163.91" y="202.96" width="37.05" height="37.05" rx="9.35"/><rect class="cls-18" x="163.91" y="162.08" width="37.05" height="37.05" rx="18.52"/><path class="cls-19" d="M201,158.57H163.91v-37h0A37,37,0,0,1,201,158.57Z"/><rect class="cls-20" x="163.91" y="81.6" width="37.05" height="37.05" rx="18.52"/><path class="cls-21" d="M201,40.71V77.76h0a37,37,0,0,1-37.05-37.05H201Z"/><rect class="cls-22" x="203.84" y="203.6" width="37.05" height="37.05" rx="18.52"/><rect class="cls-23" x="203.84" y="162.72" width="37.05" height="37.05" rx="9.35"/><rect class="cls-24" x="203.84" y="122.16" width="37.05" height="37.05" rx="9.35"/><path class="cls-25" d="M240.89,119.28h-37v-37h0A37.05,37.05,0,0,1,240.89,119.28Z"/><rect class="cls-26" x="203.84" y="41.35" width="37.05" height="37.05" rx="18.52"/></g></g></svg>