<svg xmlns="http://www.w3.org/2000/svg" viewBox="0 0 357.39 630.55"><defs><style>.cls-1{fill:#fff;}.cls-2{fill:#080051;}.cls-3{fill:#06016d;}.cls-4{fill:#d92800;stroke-width:0.7px;}.cls-13,.cls-4{stroke:#000;stroke-miterlimit:10;}.cls-5{fill:#0a0aff;}.cls-6{fill:#00eeeb;}.cls-7{fill:#610d00;}.cls-8{fill:#0000b0;}.cls-9{fill:#2700a2;}.cls-10{opacity:0.8;}.cls-11{fill:#fff01d;}.cls-12{fill:#de2900;}.cls-13{fill:none;stroke-width:0.23px;}</style></defs><g id="Layer_2" data-name="Layer 2"><g id="Layer_1-2" data-name="Layer 1"><g id="Layer_2-2" data-name="Layer 2"><g id="Layer_1-2-2" data-name="Layer 1-2"><rect class="cls-1" width="357.39" height="630.55" rx="30.29"/><path class="cls-2" d="M88.76,208.84c4.43-12,5.39-17.79,11.8-22.22,13.19-9.11,33.79-1.43,36.32-.46,11.61,4.48,10.71,8.87,19.21,10.88,16.84,4,23.28-12.55,40-10.88,18,1.79,19.68,21.88,41.19,25,13.55,2,17-5.43,26.37-.92,11.26,5.39,20.19,22.59,19.21,35.86-.17,2.28-.69,5.2.46,9,2.42,8,8.74,8.49,10.88,13.65,4.24,10.24-16,19.68-15.51,36.32.38,12.58,12.14,14.26,11.34,25.46-.76,10.67-11.6,11.37-25.45,30.54-10.08,13.95-8.52,19.35-15.5,22.68-10,4.76-17.77-4.18-39.11-10.88-7-2.18-35.66-10.51-66.64-4.16-18.15,3.71-23.05,9.59-34.94,6.47-11.44-3-23-12.64-26.37-25-4.28-15.49,8.17-21,7.63-39.1C88.93,286,64.54,283.25,64.23,260.2,64,244.65,75.12,245.55,88.76,208.84Z"/><path class="cls-3" d="M86.88,224.71c4.44-12,5.39-17.79,11.8-22.21,13.2-9.12,33.8-1.44,36.33-.47,11.6,4.49,10.71,8.87,19.21,10.88,16.84,4,23.28-12.54,40-10.88,18,1.8,19.69,21.88,41.19,25,13.55,2,17-5.42,26.38-.92C273.07,231.49,282,248.69,281,262c-.17,2.28-.69,5.2.46,9,2.42,8,8.73,8.5,10.87,13.66,4.24,10.24-16,19.68-15.5,36.33.38,12.57,12.14,14.25,11.34,25.45-.76,10.67-11.6,11.38-25.45,30.54-10.08,14-8.52,19.35-15.52,22.67-10,4.77-17.77-4.17-39.11-10.87-7-2.18-35.66-10.5-66.63-4.16-18.16,3.71-23.06,9.59-34.94,6.48-11.44-3-23-12.65-26.38-25-4.28-15.49,8.18-21,7.63-39.1-.75-25.1-25.14-27.85-25.45-50.9C62.15,260.52,73.25,261.43,86.88,224.71Z"/><path class="cls-4" d="M88.73,243c4.44-12,5.39-17.79,11.8-22.22,13.2-9.11,33.8-1.43,36.33-.46,11.61,4.49,10.71,8.87,19.21,10.88,16.84,4,23.28-12.54,40-10.88,18,1.8,19.68,21.88,41.18,25,13.55,2,17-5.42,26.38-.92,11.26,5.39,20.19,22.59,19.21,35.86-.17,2.29-.69,5.2.46,9,2.42,8,8.74,8.49,10.87,13.65,4.25,10.24-16,19.68-15.5,36.33.38,12.57,12.14,14.25,11.34,25.45-.76,10.67-11.6,11.38-25.45,30.54-10.08,13.95-8.52,19.35-15.51,22.68-10,4.76-17.76-4.18-39.1-10.88-7-2.18-35.67-10.5-66.64-4.16-18.15,3.71-23,9.59-34.94,6.48-11.44-3-23-12.65-26.37-25-4.28-15.49,8.17-21,7.63-39.11-.75-25.1-25.14-27.85-25.45-50.9C64,278.8,75.1,279.71,88.73,243Z"/><path class="cls-5" d="M111.69,275.59c3.32-8.94,4-13.3,8.82-16.61,9.87-6.82,25.28-1.08,27.17-.35,8.68,3.36,8,6.64,14.37,8.14,12.59,3,17.41-9.38,29.94-8.14,13.5,1.34,14.72,16.37,30.8,18.68,10.13,1.47,12.69-4.06,19.73-.69,8.41,4,15.1,16.9,14.37,26.82a16.25,16.25,0,0,0,.34,6.75c1.81,6,6.54,6.35,8.13,10.21,3.16,7.66-12,14.72-11.59,27.17.29,9.4,9.08,10.66,8.48,19-.58,8-8.68,8.51-19,22.85-7.53,10.43-6.36,14.47-11.59,16.95-7.47,3.56-13.29-3.12-29.24-8.13-5.21-1.64-26.68-7.86-49.84-3.12-13.58,2.78-17.25,7.19-26.13,4.85-8.56-2.25-17.18-9.46-19.73-18.68-3.2-11.59,6.12-15.72,5.71-29.25-.57-18.77-18.8-20.83-19-38.06C93.19,302.37,101.49,303.05,111.69,275.59Z"/><path class="cls-6" d="M128.24,291.2c2.4-6.45,2.91-9.6,6.37-12,7.13-4.92,18.25-.77,19.62-.25,6.27,2.43,5.78,4.8,10.37,5.88,9.09,2.15,12.57-6.78,21.61-5.88,9.75,1,10.64,11.82,22.25,13.51,7.31,1.06,9.16-2.93,14.24-.5,6.07,2.91,10.9,12.19,10.38,19.36a11.87,11.87,0,0,0,.25,4.88c1.31,4.35,4.72,4.6,5.87,7.37,2.3,5.53-8.64,10.64-8.37,19.62.2,6.79,6.55,7.7,6.12,13.74-.41,5.75-6.26,6.15-13.74,16.49-5.44,7.54-4.6,10.46-8.37,12.25-5.41,2.57-9.6-2.26-21.12-5.87-3.76-1.18-19.25-5.68-36-2.25-9.81,2-12.45,5.17-18.87,3.5-6.18-1.62-12.4-6.84-14.24-13.51-2.3-8.36,4.41-11.35,4.12-21.12-.41-13.55-13.58-15-13.74-27.49C114.88,310.54,120.88,311,128.24,291.2Z"/><path class="cls-7" d="M139.05,361.36c-7.38,8.52-5.17,23.47,0,33.09,9.12,16.95,28.67,19.64,30.77,19.9,18.9,2.3,32.39-9.42,35.87-12.73,9.7-9.2,11.33-21.25,14.58-45.35.36-2.67.74-6.63-1.39-8.1-1.64-1.15-4.6-.67-6.25.92-2.77,2.69.08,6.72-2.31,9.72-1.79,2.24-5.46,2.22-12.73,2.09-8.54-.16-9.36-1.55-13.19-.47-5.31,1.51-5,4.54-10.41,6.25-.54.17-8.09,2.43-14.11-1.39-5.24-3.32-4.51-8.18-8.56-9.48C147.1,354.44,141.78,358.21,139.05,361.36Z"/><path class="cls-8" d="M125.86,353c-7.11-.73-14.86,15-16.43,27.76-.38,3.16-1.12,9.1,1.39,10.42,3.64,1.9,11.61-7.17,13.65-9.49,5.43-6.17,10.3-11.71,9-18.74C132.78,359,129.86,353.44,125.86,353Z"/><path class="cls-9" d="M225.36,348.63c9.17,17.16,8.12,23.51,14.57,25.92.26.09,5.91,2.12,8.57-.46,5.17-5-2.66-25.84-16.43-32.4-2.67-1.27-8-3.18-9.49-1.39C221.43,341.71,223.27,344.73,225.36,348.63Z"/><g class="cls-10"><path class="cls-11" d="M137.26,281.41a1.49,1.49,0,0,1,.35-.87,2,2,0,0,1,.51-.44,4.75,4.75,0,0,1,1-.48,19.21,19.21,0,0,1,2.34-.62c1.69-.35,3.67-.63,5.7-.86s4.11-.44,6-.57q2.48-.18,4.95-.12c2,0,3.53.16,4.67.26.48.06.16,0-.7,0s-2.26-.17-4-.23c-1.53,0-3.34,0-5.46.19a54.44,54.44,0,0,1,7,.24c1.32,0,2.66.1,4,.22a174.19,174.19,0,0,1,17.57,2.4c1.06.19,2.75.49,4.42.81s3.34.66,4.35.91c-4.26-.89-8.57-1.61-12.87-2.29s-8.63-1.27-13-1.6l.7.08c2.28.21,4.55.49,6.82.81s4.52.7,6.78,1.08c.77.12,1.55.25,2.34.4l-2.34-.4c-2-.32-4-.58-6.17-.86-1.35-.2-2.89-.45-4.25-.6-1.11-.13-2.13-.31-3.18-.44-.68-.07-1.36-.12-2-.17h-.61c.42.1,1.81.28,3.69.54s4.26.61,6.66,1c4.81.81,9.77,1.75,11.17,2,2.25.35,4.35.43,6.84.91.83.16,1.51.39,2.15.48a3.49,3.49,0,0,1,.72.05l.3.08.21.05.36.11.67.23,1.29.48a.39.39,0,0,1,.17.14.2.2,0,0,1-.05.24.67.67,0,0,1-.34.16,3,3,0,0,1-.43.06,4.82,4.82,0,0,1-.76,0c-.42,0-.62-.07-.57,0,.25.22.22.26.09.25a3.94,3.94,0,0,0-.77-.07h-.06l-.16,0-.41.1a5.64,5.64,0,0,1-.9.15c-1.75,0-2.25.19-4.26.34-3,.26-3.65-.05-6.32.3l-2.37.15-2.12.1c-3.26-.07-5.29.11-7.82-.34-2.94.18-6.83-.41-9.94-.61A44.55,44.55,0,0,1,152.2,284c-.77-.13-1.35-.18-1.79-.31s-1.56-.08-2.33-.23l.22-.1-1-.21c-.25-.05-.18-.08-.11-.12s.29-.13-.16-.27c-1-.25-2.11-.5-3.18-.77s-2.14-.34-3.11-.57a.53.53,0,0,1-.3.07,7.15,7.15,0,0,1-.79-.23c-.19.05-.23.2-.36.23s-.43.19-.71.13a.67.67,0,0,1-.36-.17c-.1-.09-.18-.11-.26,0a.38.38,0,0,0,0,.21.68.68,0,0,0,0,.17.64.64,0,0,0,.1.18,2.4,2.4,0,0,0,.69.62c.55.36,1.2.64,1.59.87.18.11-.31.08-.55.14a3.91,3.91,0,0,1,.92.39c.09.07,0,.11-.28.1l.52.18-.32.09a41,41,0,0,0,4.36,1.27,28.77,28.77,0,0,0,4.33.72c.59.06,1.58.08,2.25.09.43.05.87.12,1.3.21.47-.07.42-.22.63-.33,1,.18,2.6.43,3.93.57s2.4.16,2.35-.08c1.64.14,2-.06,3.68,0,2.26.11,5.11.23,7.93.3l4.53.08h1.62c4,0,7.58,0,11.07-.14.87,0,1.73-.06,2.61-.11l1.29-.08.65,0,.67-.06c.63-.06,1.26-.13,1.87-.22a13.51,13.51,0,0,0,1.7-.37,4.93,4.93,0,0,0,1.24-.55,2.28,2.28,0,0,0,.46-.36,1.19,1.19,0,0,0,.31-.57,1.29,1.29,0,0,0-.47-.89,4.37,4.37,0,0,0-.86-.62,12.06,12.06,0,0,0-2.72-1l-.79-.21-.39-.1-.29-.06c-.37-.09-.75-.17-1.12-.24-.76-.16-1.52-.29-2.3-.44-5.44-.92-11-1.72-16.41-2.5a138,138,0,0,0-15.41-1.48,65.88,65.88,0,0,0-6.74.19c-2.08.15-4,.33-5.67.53a31.17,31.17,0,0,0-7.38,1.49,4.72,4.72,0,0,0-.84.56,2.73,2.73,0,0,0-.48.48,1.68,1.68,0,0,0-.22.42A1.6,1.6,0,0,0,137.26,281.41Z"/></g><path class="cls-1" d="M147.84,338.68c2.2-2.07,6.39,2.57,12.5,1.62,7.54-1.17,7.47-9.21,14.81-10.87,7.18-1.63,10.48,5.38,18.74,3.47,5.53-1.28,7.5-5.21,9.49-4.17,2.67,1.41,2.51,10.26-1.39,16.67-8,13.17-29.32,11.74-33.56,11.34-4.64-.44-15-1.42-19.43-8.79C147.18,344.92,146.06,340.36,147.84,338.68Z"/><path class="cls-12" d="M187.35,298.89c-1.91,1.9-4.14,4.13-3.53,5.91.73,2.08,5.18,2.91,8.4,1.84,6.55-2.18,9.43-12.6,7.23-14.45C197.44,290.49,190.69,295.55,187.35,298.89Z"/><path class="cls-12" d="M155.24,304c1.91,1.87,4.16,4.07,3.54,5.81-.72,2-5.15,2.84-8.39,1.77-6.54-2.16-9.46-12.4-7.27-14.21C145.13,295.69,151.89,300.69,155.24,304Z"/><path class="cls-1" d="M146.69,318.55c-2.39,4.41-2.35,6.88-2.3,7.64a8.63,8.63,0,0,0,1.62,5.09c2.13,2.71,6.29,3.66,9.48,2.77,4.26-1.18,3.78-4.78,9.49-9a23.39,23.39,0,0,1,10.41-4.39,20.15,20.15,0,0,1,10.87,1.14c3.92,1.67,4.39,3.58,7.19,3.71,3.12.13,6.73-2.08,7.63-4.86,1.59-4.89-5.17-11.32-10.18-14.35-13.05-7.87-30.65-2.37-37.93,4.17A31.26,31.26,0,0,0,146.69,318.55Z"/><path class="cls-13" d="M168.44,347.48a17.7,17.7,0,0,0,18.05-4.63"/><circle cx="183.71" cy="312.77" r="3.47"/><circle cx="162.65" cy="312.77" r="3.47"/><path d="M181.63,417h0a5.46,5.46,0,0,1,5.46,5.46V446a5.46,5.46,0,0,1-5.46,5.46h0a5.47,5.47,0,0,1-5.46-5.46V422.47A5.47,5.47,0,0,1,181.63,417Z"/><path d="M162.67,417h0a5.47,5.47,0,0,1,5.46,5.46V446a5.47,5.47,0,0,1-5.46,5.46h0a5.46,5.46,0,0,1-5.46-5.46V422.47A5.46,5.46,0,0,1,162.67,417Z"/></g></g></g></g></svg>