<svg xmlns="http://www.w3.org/2000/svg" viewBox="0 0 281.37 281.37"><defs><style>.cls-1{fill:#fff;}.cls-2{opacity:0.67;}.cls-3{fill:none;stroke:#000;stroke-miterlimit:10;stroke-width:0.04px;}</style></defs><g id="Layer_2" data-name="Layer 2"><g id="Layer_1-2" data-name="Layer 1"><rect class="cls-1" width="281.37" height="281.37"/><path d="M117.37,75.21a8.29,8.29,0,0,0-6.8,4.58c-2.88,5.79-.07,14.39,5.27,17.35,4.3,2.38,8.93.37,9.44,1.8.67,1.92-8.18,3.9-11.66,11-1.89,3.85-.64,6,1.11,20.82,1.38,11.66,1.43,17.33,2.22,17.34s1.62-5.92,2.78-14.43c1.33-9.84,1.45-13.82,2.22-13.88,1.11-.08,3,7.69,3.74,15.41,1.24,12.24-.66,20.22-2.63,33.16-2.67,17.42-3.73,32.35-3.06,32.47,1.34.22,7.6-57.84,16.93-58,9.8-.18,18.26,63.58,20,63.27.82-.15-.06-14.6-3.74-32.05-4.31-20.43-8.71-27.18-9-44.13-.18-9.25.89-20.21,2.22-20.26.72,0,1.32,3.13,2.36,8.19,3.66,17.93,6,29.51,7.07,29.42s.67-13,.42-20.68c-.61-18.63-2-20.73-3.05-21.92-6.19-7.11-16.36-1.54-21.79-9-3.27-4.51-.79-8.21-5.69-14.71C124.14,78.84,121.32,75.12,117.37,75.21Z"/><g class="cls-2"><path d="M268.23,111.46c-1.06-3.35-3.93-5.89-6.75-6.31-6.7-1.27-13.16,9.43-14.51,19.5-1.2,8,1.24,12.51-.07,14.1-1.82,2.24-4.8-8-11.89-9.14-3.78-.83-5.4,3.54-17.39,12-9.41,6.09-14,6.65-14,7.63,0,.78,4.71.6,11.75-.71,8.19-1.6,11.84-3.56,11.86-2.57.06,1.88-10.49,8.23-13.7,9.34-22.44,8.82-39.39,8.57-40.06,9.68-15.11,1.58-30.25,12.53-40,20.84-10,8.68-14.63,14.72-14.13,14.68.42.3,4.78,0,13.59-5.71,8.79-5.1,22-15.69,39.82-21.3,19.09-5.09,32-7.28,32.22-6.33,0,3.26-15.45,6-27.14,14.85-12.29,7.78-20.81,21.6-20.92,22.88.87.72,13.14-15.25,22.44-20.29,14.83-8.45,23.26-9.63,36.52-12.56,8.74-1.54,21.22-4.8,21.63-3.53.16.72-3.53,2.77-9,5.26-19.31,8.19-27.65,9.8-27.47,11.29.27,1.1,11.3-.23,19.43-1.84,20-4.22,24.12-8.36,24.83-9.59,6.75-10.42-1.67-18.32,6-29.64,4.13-7.05,8.92-7,14.24-18.13C267.14,122.28,269.77,116.16,268.23,111.46Z"/><path class="cls-3" d="M268.23,111.46c-1.06-3.35-3.93-5.89-6.75-6.31-6.7-1.27-13.16,9.43-14.51,19.5-1.2,8,1.24,12.51-.07,14.1-1.82,2.24-4.8-8-11.89-9.14-3.78-.83-5.4,3.54-17.39,12-9.41,6.09-14,6.65-14,7.63,0,.78,4.71.6,11.75-.71,8.19-1.6,11.84-3.56,11.86-2.57.06,1.88-10.49,8.23-13.7,9.34-22.44,8.82-39.39,8.57-40.06,9.68-15.11,1.58-30.25,12.53-40,20.84-10,8.68-14.63,14.72-14.13,14.68.42.3,4.78,0,13.59-5.71,8.79-5.1,22-15.69,39.82-21.3,19.09-5.09,32-7.28,32.22-6.33,0,3.26-15.45,6-27.14,14.85-12.29,7.78-20.81,21.6-20.92,22.88.87.72,13.14-15.25,22.44-20.29,14.83-8.45,23.26-9.63,36.52-12.56,8.74-1.54,21.22-4.8,21.63-3.53.16.72-3.53,2.77-9,5.26-19.31,8.19-27.65,9.8-27.47,11.29.27,1.1,11.3-.23,19.43-1.84,20-4.22,24.12-8.36,24.83-9.59,6.75-10.42-1.67-18.32,6-29.64,4.13-7.05,8.92-7,14.24-18.13C267.14,122.28,269.77,116.16,268.23,111.46Z"/></g></g></g></svg>