<svg xmlns="http://www.w3.org/2000/svg" xmlns:xlink="http://www.w3.org/1999/xlink" viewBox="0 0 281.49 281.49"><defs><style>.cls-1{fill:#fff;}.cls-2{fill:url(#linear-gradient);}</style><linearGradient id="linear-gradient" x1="141.06" y1="102.85" x2="147.82" y2="148.02" gradientUnits="userSpaceOnUse"><stop offset="0" stop-color="#fff"/><stop offset="0.25" stop-color="#b4b4b4"/><stop offset="0.52" stop-color="#686868"/><stop offset="0.74" stop-color="#303030"/><stop offset="0.91" stop-color="#0d0d0d"/><stop offset="1"/></linearGradient></defs><g id="Layer_2" data-name="Layer 2"><g id="Layer_1-2" data-name="Layer 1"><rect class="cls-1" width="281.49" height="281.49"/><circle class="cls-2" cx="145.16" cy="130.23" r="7.95"/><path d="M136.49,122.18c-4.43,4.25-8.76,8.61-12.94,13.1s-8.29,9.06-12.19,13.79a150.21,150.21,0,0,0-10.87,14.79,55.46,55.46,0,0,0-4.29,8,18.91,18.91,0,0,0-1.3,4.21,7.92,7.92,0,0,0-.08,2.05,3.28,3.28,0,0,0,.68,1.64,3.35,3.35,0,0,0,1.62.8,7.8,7.8,0,0,0,2.11,0,19,19,0,0,0,4.34-1.1,57.59,57.59,0,0,0,8.29-3.94,144.48,144.48,0,0,0,15.36-10.31c4.9-3.77,9.65-7.74,14.27-11.84s9.06-8.42,13.42-12.8a273,273,0,0,0,24.22-28,148.38,148.38,0,0,0,10.11-15.4A55.38,55.38,0,0,0,193.07,89a17.8,17.8,0,0,0,1-4.17c.06-.35,0-.66,0-1a8.38,8.38,0,0,0-.09-.89,2.42,2.42,0,0,0-.58-1.18,2.46,2.46,0,0,0-1.2-.46,6.21,6.21,0,0,0-.87,0c-.32,0-.62,0-.95.1a18.29,18.29,0,0,0-4,1.25,57.67,57.67,0,0,0-7.89,4.21,151.72,151.72,0,0,0-14.78,10.72c-4.76,3.84-9.37,7.88-13.86,12l-6.73,6.26C140.92,117.94,138.7,120.06,136.49,122.18Zm-3.89-3.89a222.25,222.25,0,0,1,28.11-24.67,149.72,149.72,0,0,1,15.73-10.35,57,57,0,0,1,8.69-4.07A21.49,21.49,0,0,1,190,78a11.84,11.84,0,0,1,1.35-.07,10.37,10.37,0,0,1,1.45.12,5.71,5.71,0,0,1,2.93,1.47,5.61,5.61,0,0,1,1.35,3,9.76,9.76,0,0,1,.06,1.42A11.14,11.14,0,0,1,197,85.2,20.84,20.84,0,0,1,195.6,90a59.11,59.11,0,0,1-4.45,8.37,152.94,152.94,0,0,1-11,15.1c-3.88,4.84-8,9.49-12.17,14s-8.51,9-12.9,13.34-8.9,8.6-13.53,12.7-9.31,8.15-14.18,12a156.57,156.57,0,0,1-15.15,10.76,56.66,56.66,0,0,1-8.28,4.34,20.94,20.94,0,0,1-4.58,1.37,9.1,9.1,0,0,1-2.51.07,4.76,4.76,0,0,1-2.52-1.13,4.87,4.87,0,0,1-1.25-2.5,9.58,9.58,0,0,1-.05-2.56,20.92,20.92,0,0,1,1.18-4.72,58.17,58.17,0,0,1,4-8.58,149.86,149.86,0,0,1,10.2-15.72c3.68-5,7.58-9.9,11.61-14.66S128.29,122.8,132.6,118.29Z"/><path d="M152.43,123c-4.2-4.45-8.5-8.81-12.93-13s-8.94-8.36-13.61-12.31a148.86,148.86,0,0,0-14.59-11,54.83,54.83,0,0,0-7.88-4.37A19,19,0,0,0,99.3,80.9a8.69,8.69,0,0,0-1-.12c-.33,0-.64,0-1,0a2.32,2.32,0,0,0-2.27,2.06,6.91,6.91,0,0,0,0,2,18.69,18.69,0,0,0,1,4.31,56.72,56.72,0,0,0,3.85,8.31,142,142,0,0,0,10.25,15.4c3.77,4.89,7.7,9.67,11.84,14.27s8.44,9,12.83,13.38,9,8.48,13.67,12.51,9.53,7.85,14.5,11.48a147.33,147.33,0,0,0,15.47,9.91,55,55,0,0,0,8.17,3.7,17.45,17.45,0,0,0,4,.94c.32.05.6,0,.9,0s.52-.06.76-.09a1.59,1.59,0,0,0,.76-.39,2.44,2.44,0,0,0,.23-.79c0-.23,0-.47,0-.73s0-.55-.12-.86a17.78,17.78,0,0,0-1.25-3.83,58.45,58.45,0,0,0-4.22-7.72A161.48,161.48,0,0,0,177,150.15c-3.85-4.72-7.93-9.26-12.08-13.73S156.62,127.43,152.43,123Zm5.47-5.47A184.66,184.66,0,0,1,171,131c4.09,4.75,8,9.68,11.71,14.73A145,145,0,0,1,193,161.65a58.07,58.07,0,0,1,4,8.86,22.57,22.57,0,0,1,1.21,5.09,13.79,13.79,0,0,1,.08,1.45,12.4,12.4,0,0,1-.15,1.58,6.51,6.51,0,0,1-1.72,3.35,6.28,6.28,0,0,1-3.37,1.54,11.52,11.52,0,0,1-1.54.06,12.39,12.39,0,0,1-1.41-.16,21.19,21.19,0,0,1-4.89-1.52,58.6,58.6,0,0,1-8.42-4.58,153.6,153.6,0,0,1-15-11.17c-4.8-3.94-9.44-8.06-14-12.31s-9-8.55-13.27-13-8.58-8.92-12.67-13.56-8.15-9.3-12-14.18A159.61,159.61,0,0,1,99.1,98a57,57,0,0,1-4.43-8.27,20.42,20.42,0,0,1-1.41-4.61,12.57,12.57,0,0,1-.14-1.25,12,12,0,0,1,0-1.33,5,5,0,0,1,1.18-2.66A5.24,5.24,0,0,1,97,78.53a10,10,0,0,1,2.66-.07,21.43,21.43,0,0,1,4.8,1.14,59.68,59.68,0,0,1,8.69,3.91,151.27,151.27,0,0,1,15.92,10c5.11,3.63,10,7.49,14.85,11.48S153.33,113.22,157.9,117.5Z"/><path d="M145,144.67a253.45,253.45,0,0,0,36.94-2.62,140.37,140.37,0,0,0,18-3.84,53.39,53.39,0,0,0,8.48-3.17,17.83,17.83,0,0,0,3.65-2.25,9.07,9.07,0,0,0,.71-.66c.21-.23.38-.46.55-.68a2.29,2.29,0,0,0,.38-1.18,2.55,2.55,0,0,0-.52-1.09c-.18-.19-.36-.4-.58-.6s-.46-.39-.75-.57a18.46,18.46,0,0,0-3.71-1.9,57.72,57.72,0,0,0-8.54-2.51,158.67,158.67,0,0,0-18-2.75c-6.06-.65-12.17-1-18.28-1.28s-12.24-.39-18.36-.39-12.25.12-18.36.39-12.22.63-18.29,1.28a158.16,158.16,0,0,0-18,2.75,57.49,57.49,0,0,0-8.55,2.51,18.46,18.46,0,0,0-3.71,1.9c-.29.18-.49.39-.74.57s-.4.41-.59.6a2.55,2.55,0,0,0-.52,1.09,2.29,2.29,0,0,0,.38,1.18c.17.22.34.45.55.68s.44.46.72.66A18,18,0,0,0,81.5,135,53.15,53.15,0,0,0,90,138.21a139.86,139.86,0,0,0,18,3.84A253.59,253.59,0,0,0,145,144.67Zm0,.15q-9.28,0-18.55-.4c-6.19-.26-12.37-.64-18.53-1.3a160.76,160.76,0,0,1-18.44-2.83,60.47,60.47,0,0,1-9.09-2.7A21.24,21.24,0,0,1,76,135.27a11.36,11.36,0,0,1-1-.84,12.38,12.38,0,0,1-1-1.05,5.67,5.67,0,0,1-1.17-3.11,5.79,5.79,0,0,1,1-3.21,10.55,10.55,0,0,1,.94-1.14,12.6,12.6,0,0,1,1-.93,21.84,21.84,0,0,1,4.34-2.66,57.67,57.67,0,0,1,9-3.36,142.72,142.72,0,0,1,18.46-3.92,265,265,0,0,1,74.77,0A142.87,142.87,0,0,1,200.82,119a58,58,0,0,1,9,3.36,21.78,21.78,0,0,1,4.33,2.66,12.72,12.72,0,0,1,1,.93,11.88,11.88,0,0,1,.94,1.14,5.79,5.79,0,0,1,1,3.21,5.67,5.67,0,0,1-1.18,3.11,11,11,0,0,1-1,1.05,11.36,11.36,0,0,1-1.05.84,21,21,0,0,1-4.41,2.32,60.35,60.35,0,0,1-9.08,2.7,161.43,161.43,0,0,1-18.44,2.83c-6.17.66-12.35,1-18.53,1.3S151.15,144.82,145,144.82Z"/><rect class="cls-1" x="120.17" y="168.34" width="3.09" height="1.21" rx="0.23" transform="translate(-85.45 189.87) rotate(-60)"/></g></g></svg>