<svg xmlns="http://www.w3.org/2000/svg" viewBox="0 0 281.37 281.37"><defs><style>.cls-1{fill:#fff;}</style></defs><g id="Layer_2" data-name="Layer 2"><g id="Layer_1-2" data-name="Layer 1"><rect width="281.37" height="281.37"/><rect class="cls-1" x="40.31" y="203.6" width="37.05" height="37.05" rx="18.52"/><path class="cls-1" d="M77.36,162.72v37.05h0a37.05,37.05,0,0,1-37-37.05H77.36Z"/><rect class="cls-1" x="40.31" y="122.16" width="37.05" height="37.05" rx="9.65"/><rect class="cls-1" x="40.31" y="82.23" width="37.05" height="37.05" rx="9.65"/><rect class="cls-1" x="40.31" y="41.35" width="37.05" height="37.05" rx="18.52"/><path class="cls-1" d="M118.24,240.33h-37V203.28h0A37.05,37.05,0,0,1,118.24,240.33Z"/><rect class="cls-1" x="81.19" y="162.4" width="37.05" height="37.05" rx="18.52"/><path class="cls-1" d="M118.24,121.84v37h0a37.05,37.05,0,0,1-37-37h37.05Z"/><rect class="cls-1" x="81.19" y="81.91" width="37.05" height="37.05" rx="18.52"/><rect class="cls-1" x="81.19" y="41.03" width="37.05" height="37.05" rx="9.65"/><rect class="cls-1" x="123.03" y="203.28" width="37.05" height="37.05" rx="9.35"/><path class="cls-1" d="M160.08,199.45H123v-37h0A37.05,37.05,0,0,1,160.08,199.45Z"/><rect class="cls-1" x="123.03" y="121.84" width="37.05" height="37.05" rx="18.52"/><path class="cls-1" d="M160.08,81.91V119h0a37,37,0,0,1-37.05-37h37.05Z"/><rect class="cls-1" x="123.03" y="41.03" width="37.05" height="37.05" rx="9.65"/><rect class="cls-1" x="163.91" y="202.96" width="37.05" height="37.05" rx="9.35"/><rect class="cls-1" x="163.91" y="162.08" width="37.05" height="37.05" rx="18.52"/><path class="cls-1" d="M201,158.57H163.91v-37h0A37,37,0,0,1,201,158.57Z"/><rect class="cls-1" x="163.91" y="81.6" width="37.05" height="37.05" rx="18.52"/><path class="cls-1" d="M201,40.71V77.76h0a37,37,0,0,1-37.05-37.05H201Z"/><rect class="cls-1" x="203.84" y="203.6" width="37.05" height="37.05" rx="18.52"/><rect class="cls-1" x="203.84" y="162.72" width="37.05" height="37.05" rx="9.35"/><rect class="cls-1" x="203.84" y="122.16" width="37.05" height="37.05" rx="9.35"/><path class="cls-1" d="M240.89,119.28h-37v-37h0A37.05,37.05,0,0,1,240.89,119.28Z"/><rect class="cls-1" x="203.84" y="41.35" width="37.05" height="37.05" rx="18.52"/></g></g></svg>