<svg xmlns="http://www.w3.org/2000/svg" xmlns:xlink="http://www.w3.org/1999/xlink" viewBox="0 0 281.37 281.37"><defs><style>.cls-1{fill:url(#radial-gradient);}.cls-2{fill:#fff;}</style><radialGradient id="radial-gradient" cx="137.46" cy="127.37" r="134.87" gradientTransform="translate(111.23 -58.18) rotate(39.14)" gradientUnits="userSpaceOnUse"><stop offset="0" stop-color="red"/><stop offset="0.2" stop-color="#ff0303" stop-opacity="0.99"/><stop offset="0.34" stop-color="#ff0c0c" stop-opacity="0.95"/><stop offset="0.45" stop-color="#ff1b1b" stop-opacity="0.9"/><stop offset="0.56" stop-color="#ff3030" stop-opacity="0.81"/><stop offset="0.65" stop-color="#ff4b4b" stop-opacity="0.7"/><stop offset="0.74" stop-color="#ff6d6d" stop-opacity="0.57"/><stop offset="0.83" stop-color="#ff9595" stop-opacity="0.41"/><stop offset="0.91" stop-color="#ffc4c4" stop-opacity="0.23"/><stop offset="0.99" stop-color="#fff7f7" stop-opacity="0.03"/><stop offset="1" stop-color="#fff" stop-opacity="0"/></radialGradient></defs><g id="Layer_2" data-name="Layer 2"><g id="Layer_1-2" data-name="Layer 1"><rect width="281.37" height="281.37"/><ellipse class="cls-1" cx="137.46" cy="127.37" rx="18.14" ry="126.98" transform="translate(-49.55 115.34) rotate(-39.14)"/><path class="cls-2" d="M147.07,126.48A518.23,518.23,0,0,0,102.59,155,175.9,175.9,0,0,0,82.9,171.25,58.56,58.56,0,0,0,75.46,180a19.58,19.58,0,0,0-2,3.76c-.14.29-.15.44-.24.65s-.08.3-.17.46l0,.1a.13.13,0,0,1,0,.06,11.37,11.37,0,0,0-.21.35s-.05.14,0,.25a.43.43,0,0,1,0,.17l0,.1s0,.07.07.1.15.33.39.49a3.81,3.81,0,0,0,.66.53,13.55,13.55,0,0,0,4.56,1.78,36.94,36.94,0,0,0,6,.83,55.88,55.88,0,0,0,6.48,0,124.75,124.75,0,0,0,26.73-4.5A217.44,217.44,0,0,0,168.5,163.6a217.63,217.63,0,0,0,44.08-33.23,124.48,124.48,0,0,0,17.26-20.89,55,55,0,0,0,3.19-5.64,35.94,35.94,0,0,0,2.28-5.61,13.32,13.32,0,0,0,.74-4.84,2.85,2.85,0,0,0-.13-.84c0-.29-.17-.4-.22-.58l0-.12-.09-.06a.68.68,0,0,1-.12-.12c-.08-.07-.21,0-.23-.1a1.21,1.21,0,0,1-.26,0h-.32c-.18,0-.22-.06-.49-.08a5.78,5.78,0,0,0-.68-.12,19.85,19.85,0,0,0-4.25-.13,58.56,58.56,0,0,0-11.29,2.07A175,175,0,0,0,194,102.21,515.79,515.79,0,0,0,147.07,126.48Zm-15.59-27A232.62,232.62,0,0,1,185,76.68a145.3,145.3,0,0,1,29.65-5.23,75.28,75.28,0,0,1,8-.09,57.18,57.18,0,0,1,8.41.87,33.18,33.18,0,0,1,9.22,3,20.51,20.51,0,0,1,2.43,1.41,18.73,18.73,0,0,1,2.4,1.84l.57.51.56.61c.36.4.72.81,1.07,1.23a23.78,23.78,0,0,1,1.79,2.8,22.93,22.93,0,0,1,1.16,3.07c.13.52.24,1,.34,1.55l.14.78c0,.25,0,.49.05.74a16.32,16.32,0,0,1,0,2.88,17.27,17.27,0,0,1-.37,2.61,27.68,27.68,0,0,1-3.32,8.38,64.45,64.45,0,0,1-9.49,12.06,134.79,134.79,0,0,1-10.64,9.75c-3.65,3-7.38,5.92-11.15,8.71A517.16,517.16,0,0,1,168.9,164.3a519.44,519.44,0,0,1-49.59,25.51c-4.3,1.87-8.66,3.66-13.12,5.31a131.43,131.43,0,0,1-13.77,4.33,63.72,63.72,0,0,1-15.18,2.19,27.73,27.73,0,0,1-8.91-1.31,17.1,17.1,0,0,1-2.46-1,17.31,17.31,0,0,1-2.49-1.44c-.2-.14-.41-.27-.61-.42l-.6-.51c-.4-.35-.79-.7-1.18-1.07a23.66,23.66,0,0,1-2.08-2.54,23.68,23.68,0,0,1-1.53-3c-.18-.5-.36-1-.53-1.54l-.24-.78c-.06-.25-.1-.5-.16-.75a20.64,20.64,0,0,1-.4-3,21.94,21.94,0,0,1,0-2.81,33.65,33.65,0,0,1,2.06-9.46,57.52,57.52,0,0,1,3.45-7.72,72.7,72.7,0,0,1,4.06-6.85A145,145,0,0,1,85,134.42,232.48,232.48,0,0,1,131.48,99.48Z"/><path class="cls-2" d="M167.72,162.09a417,417,0,0,0-35.27,22.57,137.79,137.79,0,0,0-15.6,12.92,46.29,46.29,0,0,0-5.9,6.92,15.05,15.05,0,0,0-1.59,3c-.17.39-.25.68-.33.88a.24.24,0,0,0,0,.12.41.41,0,0,1-.06.11.82.82,0,0,1-.1.17s0,.12,0,.2a.5.5,0,0,1,0,.13.18.18,0,0,0,.07.17,2.54,2.54,0,0,0,.83.8,10.53,10.53,0,0,0,3.61,1.41,27.87,27.87,0,0,0,4.76.66,41.7,41.7,0,0,0,5.13,0,98.39,98.39,0,0,0,21.18-3.58,171,171,0,0,0,40.29-17.08,170.65,170.65,0,0,0,34.94-26.35,98.82,98.82,0,0,0,13.69-16.55,45.42,45.42,0,0,0,2.53-4.47,29.11,29.11,0,0,0,1.81-4.45,10.61,10.61,0,0,0,.58-3.83,2.48,2.48,0,0,0-.28-1.12.2.2,0,0,0-.11-.15.28.28,0,0,1-.09-.1c-.07-.05-.17,0-.19-.07a1.32,1.32,0,0,1-.2,0,.24.24,0,0,1-.12,0,.33.33,0,0,0-.14,0c-.2,0-.5-.1-.92-.16a15.33,15.33,0,0,0-3.38-.1,46.45,46.45,0,0,0-8.94,1.64,140.09,140.09,0,0,0-19,7.05A418.39,418.39,0,0,0,167.72,162.09Zm-12.36-21.4a183.49,183.49,0,0,1,42.42-18.06,114.79,114.79,0,0,1,23.5-4.16,62.91,62.91,0,0,1,6.31-.08,47,47,0,0,1,6.68.7,26.1,26.1,0,0,1,7.3,2.34,15.35,15.35,0,0,1,1.93,1.11,15.13,15.13,0,0,1,3.64,3.32,17.78,17.78,0,0,1,1.42,2.22,16.44,16.44,0,0,1,.92,2.44,13.5,13.5,0,0,1,.43,2.43,14.93,14.93,0,0,1-.29,4.36,21.87,21.87,0,0,1-2.64,6.63,50.18,50.18,0,0,1-7.51,9.56,142.41,142.41,0,0,1-17.27,14.65A419,419,0,0,1,185,192.07a419.43,419.43,0,0,1-39.3,20.24,141.64,141.64,0,0,1-21.32,7.62,51.24,51.24,0,0,1-12,1.74,22,22,0,0,1-7.07-1,14.82,14.82,0,0,1-3.92-1.93,13.77,13.77,0,0,1-1.89-1.58,17.26,17.26,0,0,1-1.65-2,16.73,16.73,0,0,1-1.21-2.34,14.45,14.45,0,0,1-.74-2.44,15.79,15.79,0,0,1-.32-2.37,16.58,16.58,0,0,1,0-2.23,26.66,26.66,0,0,1,1.63-7.5,45.79,45.79,0,0,1,2.73-6.12,62.16,62.16,0,0,1,3.22-5.43,114.7,114.7,0,0,1,15.36-18.27A183.27,183.27,0,0,1,155.36,140.69Z"/><path class="cls-2" d="M183,189.14c-4.32,2.79-8.61,5.63-12.79,8.59s-8.31,6-12.26,9.14a101.84,101.84,0,0,0-11,10,34.22,34.22,0,0,0-4.09,5.27,11.62,11.62,0,0,0-1.06,2.23,4.23,4.23,0,0,1-.35,1c-.09.14.05.53.71.92a7.75,7.75,0,0,0,2.69.91,28.13,28.13,0,0,0,7.27.18A72,72,0,0,0,167.5,224a131,131,0,0,0,53.6-34.37A73,73,0,0,0,230.56,177a28.11,28.11,0,0,0,2.87-6.68,7.86,7.86,0,0,0,.3-2.83c-.09-.76-.39-1.05-.54-1a4.18,4.18,0,0,1-1-.08,11,11,0,0,0-2.48,0A33.59,33.59,0,0,0,223.2,168a102,102,0,0,0-13.67,5.81c-4.52,2.27-9,4.73-13.42,7.33S187.31,186.38,183,189.14Zm-9.78-15.25a134.75,134.75,0,0,1,30.45-14.67,83.92,83.92,0,0,1,17.06-3.85,40.57,40.57,0,0,1,9.54,0,19.44,19.44,0,0,1,5.43,1.46,12.54,12.54,0,0,1,2.88,1.76,11,11,0,0,1,1.35,1.3,13.44,13.44,0,0,1,1.11,1.57,12.81,12.81,0,0,1,.76,1.76,9.62,9.62,0,0,1,.39,1.76,10.92,10.92,0,0,1-.06,3.2,16.16,16.16,0,0,1-1.7,5,37.24,37.24,0,0,1-5.18,7.25,103.91,103.91,0,0,1-12.14,11.32c-4.24,3.43-8.57,6.67-13,9.77s-8.88,6.1-13.41,9-9.12,5.73-13.79,8.43-9.41,5.32-14.3,7.74A103.35,103.35,0,0,1,153.23,233a37.2,37.2,0,0,1-8.75,1.68,16.17,16.17,0,0,1-5.21-.52,10.28,10.28,0,0,1-4.38-2.37,13.45,13.45,0,0,1-1.28-1.42,12.64,12.64,0,0,1-1-1.67,11.26,11.26,0,0,1-.63-1.76,13.11,13.11,0,0,1-.39-3.36,19.2,19.2,0,0,1,.94-5.55,40.56,40.56,0,0,1,4-8.66,84.21,84.21,0,0,1,10.61-13.91A135.69,135.69,0,0,1,173.19,173.89Z"/><path class="cls-2" d="M83.41,66.6c-4.33,2.79-8.61,5.63-12.8,8.58s-8.31,6-12.26,9.15a100.81,100.81,0,0,0-11,10,33.51,33.51,0,0,0-4.08,5.27,11.16,11.16,0,0,0-1.07,2.23,4.23,4.23,0,0,1-.35,1c-.08.13.05.52.71.92a7.74,7.74,0,0,0,2.7.91,28.06,28.06,0,0,0,7.26.18,73.11,73.11,0,0,0,15.39-3.35A126.18,126.18,0,0,0,96.85,87.57a125.69,125.69,0,0,0,24.68-20.5A72,72,0,0,0,131,54.49a27.71,27.71,0,0,0,2.87-6.68,7.64,7.64,0,0,0,.3-2.83c-.09-.76-.38-1-.54-1a4.18,4.18,0,0,1-1-.08,10.86,10.86,0,0,0-2.47,0,34.24,34.24,0,0,0-6.49,1.52A100.92,100.92,0,0,0,110,51.23q-6.8,3.41-13.43,7.32C92.11,61.12,87.74,63.83,83.41,66.6ZM73.62,51.35a135.21,135.21,0,0,1,30.45-14.68,84.85,84.85,0,0,1,17.07-3.85,41,41,0,0,1,9.53,0,19.3,19.3,0,0,1,5.43,1.47A12.53,12.53,0,0,1,139,36.05a10.92,10.92,0,0,1,1.34,1.3,14.55,14.55,0,0,1,1.12,1.58,12.62,12.62,0,0,1,.75,1.75,10,10,0,0,1,.4,1.77,11.28,11.28,0,0,1-.06,3.2,16.1,16.1,0,0,1-1.71,5,37,37,0,0,1-5.18,7.26,103,103,0,0,1-12.14,11.31c-4.23,3.44-8.57,6.68-13,9.77s-8.89,6.11-13.42,9S88,93.69,83.31,96.39s-9.41,5.32-14.3,7.73a102.94,102.94,0,0,1-15.35,6.32,37.1,37.1,0,0,1-8.75,1.68,16.2,16.2,0,0,1-5.21-.52,10.9,10.9,0,0,1-2.93-1.28,10.37,10.37,0,0,1-1.45-1.09,13.25,13.25,0,0,1-1.27-1.42,13.4,13.4,0,0,1-1-1.67,10.68,10.68,0,0,1-.62-1.77,12.17,12.17,0,0,1-.39-3.35A19.55,19.55,0,0,1,33,95.47a40.65,40.65,0,0,1,4-8.67A84.18,84.18,0,0,1,47.59,72.9,135,135,0,0,1,73.62,51.35Z"/><path class="cls-2" d="M112.09,91.15a414.39,414.39,0,0,0-35.27,22.56,140,140,0,0,0-15.6,12.92,47.41,47.41,0,0,0-5.9,6.92,15.61,15.61,0,0,0-1.59,3c-.17.4-.25.69-.33.88l0,.13a.37.37,0,0,1-.06.1.85.85,0,0,1-.1.18s0,.11,0,.19a.47.47,0,0,1,0,.14.17.17,0,0,0,.07.16,2.55,2.55,0,0,0,.83.81,11,11,0,0,0,3.61,1.41,28.93,28.93,0,0,0,4.76.65,43.9,43.9,0,0,0,5.14,0,99,99,0,0,0,21.17-3.58,171.44,171.44,0,0,0,40.29-17.08A171.38,171.38,0,0,0,164,94.22,98.82,98.82,0,0,0,177.7,77.67a43.6,43.6,0,0,0,2.53-4.48A28.61,28.61,0,0,0,182,68.75a10.69,10.69,0,0,0,.58-3.84,2.39,2.39,0,0,0-.28-1.12.17.17,0,0,0-.1-.14.46.46,0,0,1-.1-.1c-.07-.06-.17,0-.19-.08a.72.72,0,0,1-.2,0h-.26c-.2,0-.5-.11-.92-.16a15.17,15.17,0,0,0-3.37-.11,46.47,46.47,0,0,0-8.95,1.65,137.46,137.46,0,0,0-19,7A415.75,415.75,0,0,0,112.09,91.15ZM99.73,69.74a183.49,183.49,0,0,1,42.42-18.06,115.47,115.47,0,0,1,23.5-4.16,60.26,60.26,0,0,1,6.32-.07,45.37,45.37,0,0,1,6.67.69,26.77,26.77,0,0,1,7.3,2.34,14.31,14.31,0,0,1,1.93,1.12,15.36,15.36,0,0,1,3.64,3.31,17.78,17.78,0,0,1,1.42,2.22,18.2,18.2,0,0,1,.93,2.44,14.57,14.57,0,0,1,.42,2.43,14.93,14.93,0,0,1-.29,4.36A22,22,0,0,1,191.35,73a50.82,50.82,0,0,1-7.51,9.56A141.42,141.42,0,0,1,166.57,97.2a414.49,414.49,0,0,1-37.18,23.92,414.7,414.7,0,0,1-39.3,20.24A142,142,0,0,1,68.77,149a50.73,50.73,0,0,1-12,1.73,22,22,0,0,1-7.07-1,14.82,14.82,0,0,1-3.92-1.93,13.65,13.65,0,0,1-1.89-1.58,17.26,17.26,0,0,1-1.65-2A17.76,17.76,0,0,1,41,141.82a14.73,14.73,0,0,1-.74-2.44,15.92,15.92,0,0,1-.32-2.38,16.59,16.59,0,0,1,0-2.23,26.59,26.59,0,0,1,1.63-7.49,45.93,45.93,0,0,1,2.73-6.13,61.22,61.22,0,0,1,3.23-5.43A114.12,114.12,0,0,1,62.88,97.45,183.65,183.65,0,0,1,99.73,69.74Z"/></g></g></svg>