<svg xmlns="http://www.w3.org/2000/svg" viewBox="0 0 281.37 281.37"><defs><style>.cls-1{fill:#450300;}.cls-2{fill:#610300;}.cls-3{fill:#7d0300;}.cls-4{fill:#930300;}.cls-5{fill:#b90300;}.cls-6{fill:#cb0003;}.cls-7{fill:#750022;}.cls-8{fill:#750043;}.cls-9{fill:#750069;}.cls-10{fill:#75008d;}.cls-11{fill:#d6c900;}.cls-12{fill:#fff;}.cls-13{fill:#d6c942;}.cls-14{fill:#d6c965;}.cls-15{fill:#d6c982;}.cls-16{fill:#d6c9a0;}.cls-17{fill:#030062;}.cls-18{fill:#03008c;}.cls-19{fill:#0300a3;}.cls-20{fill:#0300b2;}.cls-21{fill:#0300c9;}.cls-22{fill:#032700;}.cls-23{fill:#2b2700;}.cls-24{fill:#442700;}.cls-25{fill:#672700;}.cls-26{fill:#992700;}</style></defs><g id="Layer_2" data-name="Layer 2"><g id="Layer_1-2" data-name="Layer 1"><rect x="0.2" y="0.2" width="280.96" height="280.96"/><path d="M.4.4H281V281H.4V.4M0,0V281.37H281.37V0Z"/><rect class="cls-1" x="204.01" y="40.71" width="37.05" height="37.05" rx="18.52"/><path class="cls-2" d="M204,118.64v-37h0a37,37,0,0,1,37.05,37H204Z"/><rect class="cls-3" x="204.01" y="122.16" width="37.05" height="37.05" rx="9.65"/><rect class="cls-4" x="204.01" y="162.08" width="37.05" height="37.05" rx="9.65"/><rect class="cls-5" x="204.01" y="202.96" width="37.05" height="37.05" rx="18.52"/><path class="cls-6" d="M163.12,41h37V78.08h0A37.05,37.05,0,0,1,163.12,41Z"/><rect class="cls-7" x="163.12" y="81.91" width="37.05" height="37.05" rx="18.52"/><path class="cls-8" d="M163.12,159.53v-37h0a37,37,0,0,1,37,37.05h-37Z"/><rect class="cls-9" x="163.12" y="162.4" width="37.05" height="37.05" rx="18.52"/><rect class="cls-10" x="163.12" y="203.28" width="37.05" height="37.05" rx="9.65"/><rect class="cls-11" x="121.44" y="41.19" width="36.73" height="36.73" rx="9.19"/><path class="cls-12" d="M149,41.35a9,9,0,0,1,9,9V68.73a9,9,0,0,1-9,9H130.63a9,9,0,0,1-9-9V50.38a9,9,0,0,1,9-9H149m0-.32H130.63a9.35,9.35,0,0,0-9.35,9.35V68.73a9.35,9.35,0,0,0,9.35,9.35H149a9.34,9.34,0,0,0,9.35-9.35V50.38A9.35,9.35,0,0,0,149,41Z"/><path class="cls-13" d="M158.17,118.8a36.93,36.93,0,0,1-36.73-36.73h36.73Z"/><path class="cls-12" d="M158,82.23v36.41A36.72,36.72,0,0,1,121.6,82.23H158m.32-.32H121.28A37,37,0,0,0,158.33,119h0v-37Z"/><path class="cls-14" d="M139.81,159.37A18.37,18.37,0,1,1,158.17,141,18.39,18.39,0,0,1,139.81,159.37Z"/><path class="cls-12" d="M139.81,122.8A18.2,18.2,0,1,1,121.6,141a18.21,18.21,0,0,1,18.21-18.2m0-.32h0a18.53,18.53,0,1,0,0,37.05h0a18.53,18.53,0,0,0,0-37Z"/><path class="cls-15" d="M121.44,199.29V162.56a36.93,36.93,0,0,1,36.73,36.73Z"/><path class="cls-12" d="M121.6,162.72A36.77,36.77,0,0,1,158,199.13H121.6V162.72m-.32-.32h0v37h37.05a37,37,0,0,0-37.05-37Z"/><rect class="cls-16" x="121.44" y="203.44" width="36.73" height="36.73" rx="9.49"/><path class="cls-12" d="M148.69,203.6a9.34,9.34,0,0,1,9.32,9.33v17.75a9.33,9.33,0,0,1-9.32,9.33H130.93a9.34,9.34,0,0,1-9.33-9.33V212.93a9.35,9.35,0,0,1,9.33-9.33h17.76m0-.32H130.93a9.65,9.65,0,0,0-9.65,9.65v17.75a9.65,9.65,0,0,0,9.65,9.65h17.76a9.65,9.65,0,0,0,9.64-9.65V212.93a9.65,9.65,0,0,0-9.64-9.65Z"/><rect class="cls-17" x="80.4" y="41.35" width="37.05" height="37.05" rx="9.35"/><rect class="cls-18" x="80.4" y="82.23" width="37.05" height="37.05" rx="18.52"/><path class="cls-19" d="M80.4,122.8h37.05v37.05h0A37.05,37.05,0,0,1,80.4,122.8Z"/><rect class="cls-20" x="80.4" y="162.72" width="37.05" height="37.05" rx="18.52"/><path class="cls-21" d="M80.4,240.65V203.6h0a37.05,37.05,0,0,1,37.05,37.05h-37Z"/><rect class="cls-22" x="40.48" y="40.71" width="37.05" height="37.05" rx="18.52"/><rect class="cls-23" x="40.48" y="81.6" width="37.05" height="37.05" rx="9.35"/><rect class="cls-24" x="40.48" y="122.16" width="37.05" height="37.05" rx="9.35"/><path class="cls-25" d="M40.48,162.08H77.53v37h0A37.05,37.05,0,0,1,40.48,162.08Z"/><rect class="cls-26" x="40.48" y="202.96" width="37.05" height="37.05" rx="18.52"/></g></g></svg>