<svg xmlns="http://www.w3.org/2000/svg" xmlns:xlink="http://www.w3.org/1999/xlink" viewBox="0 0 203.68 198.13"><defs><style>.cls-1{fill:url(#radial-gradient);}.cls-2{fill:#ff7f18;}</style><radialGradient id="radial-gradient" cx="-1672.89" cy="2689.34" r="0.07" gradientTransform="matrix(2291.67, 0, 0, -2218.75, 3833786.02, 5967024.42)" gradientUnits="userSpaceOnUse"><stop offset="0" stop-color="#423325" stop-opacity="0.98"/><stop offset="1" stop-color="#1c0a00"/></radialGradient></defs><g id="Layer_2" data-name="Layer 2"><g id="Layer_1-2" data-name="Layer 1"><path class="cls-1" d="M23.7,0H180a23.69,23.69,0,0,1,23.69,23.7V174.43A23.69,23.69,0,0,1,180,198.13H23.7A23.7,23.7,0,0,1,0,174.43V23.7A23.7,23.7,0,0,1,23.7,0Z"/><path class="cls-2" d="M122.58,140.91,93.14,41c-.18-.75-.46-.93-1.11-.93H72.59c-.47,0-.75.28-.75.93-.18,4.53-.46,6-.92,7.68l-26.29,92c-.19,1.1,0,1.39.92,1.39H59.16c.92,0,1.2-.19,1.39-.93l7.32-27.78H97.49l7.59,27.87c.19.65.65.84,1.39.84h15.37C122.58,142.12,122.77,141.65,122.58,140.91ZM71.66,98.42c3.89-14.35,8.8-32.69,10.74-43.52h.18C84.9,65.73,91,88.14,93.6,98.42Z"/><path class="cls-2" d="M154.15,46.94c0,6.11-4,9.45-9.63,9.45-5.36,0-9.26-3.34-9.26-9.45,0-5.92,4.17-9.45,9.45-9.45C150.35,37.49,154.15,41.29,154.15,46.94Z"/><path class="cls-2" d="M153,68V141c0,.74-.18,1.11-1.11,1.11H137.58c-.93,0-1.2-.47-1.2-1.21V68h-.1c0-.73.28-1.1,1.12-1.1h14.53C152.67,66.85,153,67.12,153,68Z"/></g></g></svg>