<svg xmlns="http://www.w3.org/2000/svg" viewBox="0 0 162.6 185.97"><defs><style>.cls-1{fill:#fc490b;}.cls-2{fill:#fff;}</style></defs><g id="Layer_2" data-name="Layer 2"><g id="Layer_1-2" data-name="Layer 1"><g id="Layer_2-2" data-name="Layer 2"><g id="Layer_1-2-2" data-name="Layer 1-2"><path class="cls-1" d="M156.89,0H5.73A5.71,5.71,0,0,0,0,5.68C0,5.84,0,6,0,6.16L12.13,160.57a5.68,5.68,0,0,0,4,5L79.61,185.7a5.65,5.65,0,0,0,3.45,0l63.48-20.14a5.68,5.68,0,0,0,4-5L162.58,6.16A5.71,5.71,0,0,0,157.34,0ZM131.63,54.06H53L55.35,76h74.56L125,138.36,81.29,152.22,37.54,138.36,35,105.76H58v16l23.94,6.43,23.79-6.43,1.85-25.51H34.28L29.42,34H133.2Z"/><polygon class="cls-2" points="131.63 54.06 52.97 54.06 55.35 75.96 129.92 75.96 125.04 138.36 81.31 152.22 37.58 138.36 35.03 105.76 57.99 105.76 57.99 121.75 81.92 128.18 105.72 121.75 107.57 96.26 34.28 96.26 29.42 34.02 133.2 34.02 131.63 54.06"/></g></g></g></g></svg>