<svg xmlns="http://www.w3.org/2000/svg" xmlns:xlink="http://www.w3.org/1999/xlink" viewBox="0 0 203.97 198.41"><defs><style>.cls-1{fill:url(#radial-gradient);}.cls-2{fill:#31c5f0;}</style><radialGradient id="radial-gradient" cx="-1452.07" cy="2936.74" r="0.07" gradientTransform="matrix(2291.67, 0, 0, -2218.75, 3327734.65, 6515928.88)" gradientUnits="userSpaceOnUse"><stop offset="0" stop-color="#34364e" stop-opacity="0.98"/><stop offset="1" stop-color="#0c0824"/></radialGradient></defs><g id="Layer_2" data-name="Layer 2"><g id="Layer_1-2" data-name="Layer 1"><path class="cls-1" d="M15.75,0H188.22A15.75,15.75,0,0,1,204,15.75V182.66a15.75,15.75,0,0,1-15.75,15.75H15.75A15.75,15.75,0,0,1,0,182.66V15.75A15.75,15.75,0,0,1,15.75,0Z"/><path class="cls-2" d="M70.46,40c-9.18,0-18,.19-23.92.46-.74,0-2,.47-2,1.12v99.57c0,.84.37,1.12,1.12,1.12H59.8c.84,0,1.11-.37,1.11-1.12v-35.6c2.51,0,3.71.19,7.24.19,20.95,0,38-10.11,38-33.66C106.16,54.05,96.15,40,70.46,40ZM68.52,91c-3.71,0-5.38,0-7.51-.18V55c1.67-.09,5.19-.28,8.9-.28,12.33,0,19.65,5.94,19.65,17.71C89.56,87.15,79.37,91,68.52,91Zm73.89,6.31c-9.83-5.1-11.49-7.42-11.49-10.76,0-3.06,2.5-6.76,9.82-6.76,6,0,12.06,1.57,16.14,4.17.92.28,1.38-.19,1.38-.93V70.28a2.06,2.06,0,0,0-.92-1.86c-3.06-1.39-8.62-2.59-16.6-2.59-16.22,0-25.59,9.92-25.59,21.88,0,10.66,5.47,17.06,18.64,23.36,9.36,4.82,11.5,7.79,11.5,11.13,0,4.17-3.06,7.23-10.39,7.23A34.4,34.4,0,0,1,116.27,124c-.65-.46-1.12-.19-1.12.74v13.63c0,.74.1,1.21.75,1.49,4,2.31,10.93,4,19,4,15.3,0,26.61-8,26.61-22.81C161.51,111.07,157,104.3,142.41,97.26Zm0,0c-9.83-5.1-11.49-7.42-11.49-10.76,0-3.06,2.5-6.76,9.82-6.76,6,0,12.06,1.57,16.14,4.17.92.28,1.38-.19,1.38-.93V70.28a2.06,2.06,0,0,0-.92-1.86c-3.06-1.39-8.62-2.59-16.6-2.59-16.22,0-25.59,9.92-25.59,21.88,0,10.66,5.47,17.06,18.64,23.36,9.36,4.82,11.5,7.79,11.5,11.13,0,4.17-3.06,7.23-10.39,7.23A34.4,34.4,0,0,1,116.27,124c-.65-.46-1.12-.19-1.12.74v13.63c0,.74.1,1.21.75,1.49,4,2.31,10.93,4,19,4,15.3,0,26.61-8,26.61-22.81C161.51,111.07,157,104.3,142.41,97.26ZM70.46,40c-9.18,0-18,.19-23.92.46-.74,0-2,.47-2,1.12v99.57c0,.84.37,1.12,1.12,1.12H59.8c.84,0,1.11-.37,1.11-1.12v-35.6c2.51,0,3.71.19,7.24.19,20.95,0,38-10.11,38-33.66C106.16,54.05,96.15,40,70.46,40ZM68.52,91c-3.71,0-5.38,0-7.51-.18V55c1.67-.09,5.19-.28,8.9-.28,12.33,0,19.65,5.94,19.65,17.71C89.56,87.15,79.37,91,68.52,91Zm73.89,6.31c-9.83-5.1-11.49-7.42-11.49-10.76,0-3.06,2.5-6.76,9.82-6.76,6,0,12.06,1.57,16.14,4.17.92.28,1.38-.19,1.38-.93V70.28a2.06,2.06,0,0,0-.92-1.86c-3.06-1.39-8.62-2.59-16.6-2.59-16.22,0-25.59,9.92-25.59,21.88,0,10.66,5.47,17.06,18.64,23.36,9.36,4.82,11.5,7.79,11.5,11.13,0,4.17-3.06,7.23-10.39,7.23A34.4,34.4,0,0,1,116.27,124c-.65-.46-1.12-.19-1.12.74v13.63c0,.74.1,1.21.75,1.49,4,2.31,10.93,4,19,4,15.3,0,26.61-8,26.61-22.81C161.51,111.07,157,104.3,142.41,97.26ZM70.46,40c-9.18,0-18,.19-23.92.46-.74,0-2,.47-2,1.12v99.57c0,.84.37,1.12,1.12,1.12H59.8c.84,0,1.11-.37,1.11-1.12v-35.6c2.51,0,3.71.19,7.24.19,20.95,0,38-10.11,38-33.66C106.16,54.05,96.15,40,70.46,40ZM68.52,91c-3.71,0-5.38,0-7.51-.18V55c1.67-.09,5.19-.28,8.9-.28,12.33,0,19.65,5.94,19.65,17.71C89.56,87.15,79.37,91,68.52,91Z"/></g></g></svg>