<svg width="197" height="200" viewBox="0 0 197 200" fill="none" xmlns="http://www.w3.org/2000/svg">
<g clip-path="url(#clip0_1_42)">
<path d="M122 1.79C113.794 0.452306 105.484 -0.14676 97.17 -2.23331e-06C89.5386 -0.019977 81.921 0.649409 74.41 2C54.18 5.59 50.63 12.93 50.63 26.85V45.05H98.18V51.13H32.9C19.24 51.13 7.11002 59.47 3.32002 75.13C-0.979978 93.35 -1.22998 104.48 3.32002 123.44C6.61002 137.63 14.71 147.44 28.61 147.44H45.08V125.71C45.08 110.03 58.74 96.12 74.66 96.12H122C125.156 96.09 128.275 95.4377 131.179 94.2006C134.082 92.9635 136.713 91.1659 138.921 88.9106C141.129 86.6553 142.871 83.9866 144.046 81.0574C145.221 78.1282 145.807 74.9959 145.77 71.84V26.58C145.74 13.69 134.85 4.07 122 1.79ZM71.36 32.64C68.9818 32.6005 66.7158 31.6211 65.0575 29.916C63.3991 28.2108 62.4833 25.9184 62.51 23.54C62.4766 22.3569 62.6808 21.1792 63.1106 20.0764C63.5403 18.9737 64.1869 17.9683 65.0121 17.1199C65.8372 16.2714 66.8242 15.5971 67.9145 15.1368C69.0049 14.6765 70.1765 14.4395 71.36 14.44C73.6997 14.5497 75.9072 15.5564 77.5242 17.2509C79.1411 18.9455 80.0433 21.1978 80.0433 23.54C80.0433 25.8822 79.1411 28.1345 77.5242 29.8291C75.9072 31.5236 73.6997 32.5303 71.36 32.64Z" fill="#F4F4F2"/>
<path d="M71.36 32.64C76.2477 32.64 80.21 28.5658 80.21 23.54C80.21 18.5142 76.2477 14.44 71.36 14.44C66.4723 14.44 62.51 18.5142 62.51 23.54C62.51 28.5658 66.4723 32.64 71.36 32.64Z" fill="black"/>
<path d="M193.27 74.64C189.98 60.98 183.4 50.64 169.49 50.64H151.49V71.64C151.49 88.08 137.58 101.73 121.64 101.73H74.41C61.51 101.73 50.63 112.86 50.63 126.01V171.29C50.63 184.19 61.76 191.78 74.41 195.57C89.33 200.12 103.74 200.89 121.96 195.57C133.83 192.03 145.74 185.18 145.74 171.28V153H98.17V147H169.49C183.16 147 188.49 137.4 193.27 123C198.32 108 198.08 93.87 193.27 74.64ZM124.72 165.18C126.519 165.131 128.292 165.617 129.815 166.576C131.338 167.534 132.542 168.923 133.276 170.566C134.009 172.209 134.239 174.033 133.937 175.807C133.634 177.581 132.812 179.225 131.575 180.532C130.338 181.839 128.742 182.75 126.987 183.15C125.232 183.549 123.399 183.419 121.718 182.777C120.037 182.135 118.584 181.008 117.543 179.54C116.502 178.072 115.92 176.329 115.87 174.53V174.28C115.843 171.902 116.759 169.609 118.417 167.904C120.076 166.199 122.342 165.22 124.72 165.18V165.18Z" fill="#797A2F"/>
<path d="M124.72 183.38C129.608 183.38 133.57 179.306 133.57 174.28C133.57 169.254 129.608 165.18 124.72 165.18C119.832 165.18 115.87 169.254 115.87 174.28C115.87 179.306 119.832 183.38 124.72 183.38Z" fill="white"/>
</g>
<defs>
<clipPath id="clip0_1_42">
<rect width="196.97" height="199.25" fill="white"/>
</clipPath>
</defs>
</svg>

