<svg xmlns="http://www.w3.org/2000/svg" viewBox="0 0 440 719.3"><defs><style>.cls-1,.cls-5,.cls-8{fill:#fff;}.cls-1,.cls-10,.cls-2,.cls-5,.cls-6,.cls-7,.cls-8{stroke:#000;}.cls-1,.cls-10,.cls-2,.cls-5,.cls-6,.cls-7,.cls-8,.cls-9{stroke-miterlimit:10;}.cls-1{stroke-width:0.49px;}.cls-2{fill:#1d1d1b;stroke-width:1.32px;}.cls-3{fill:#1c0a07;}.cls-4{fill:#454444;}.cls-10,.cls-5{stroke-width:0.73px;}.cls-6,.cls-9{stroke-width:0.66px;}.cls-7,.cls-8{stroke-width:0.17px;}.cls-9{fill:none;stroke:#fff;}</style></defs><g id="Layer_2" data-name="Layer 2"><g id="Layer_1-2" data-name="Layer 1"><rect class="cls-1" x="0.25" y="0.25" width="439.51" height="718.8" rx="71.55"/><circle class="cls-2" cx="121.08" cy="291.04" r="31.28"/><path class="cls-3" d="M302.64,345.41l3.25-2.78,10.24,43.09a65.87,65.87,0,0,0,6-10.92c2.07-4.78,9.11-21,3.55-38.11-1.76-5.45-4.54-14-11.72-15.85-5.89-1.52-11.45,2.32-13.2,3.63"/><polygon class="cls-4" points="293.14 307.32 318.61 284.85 349.64 322.32 325.37 385.72 310.52 335.37 302.76 341.31 293.14 307.32"/><path d="M250.71,325.47,216,333.9l-.24.06-.14-.2L214.31,332l.61,0h0a15.76,15.76,0,0,1-2.83,4.28,5.45,5.45,0,0,1-1.08.86,2.13,2.13,0,0,1-1.58.34,2,2,0,0,1-1.26-1.08,4.3,4.3,0,0,1-.44-1.34,7.07,7.07,0,0,1,.91-5.19,6.92,6.92,0,0,1,4.15-3,16,16,0,0,0-3.29,3.53,6,6,0,0,0-.7,4.45c.14.72.51,1.5.89,1.58s1.15-.36,1.68-.88a19.27,19.27,0,0,0,2.91-3.89h0l.28-.5.33.46,1.32,1.82-.38-.14,34.71-8.44Z"/><path d="M216.27,333.65a12,12,0,0,1-1.62,3.4,7.41,7.41,0,0,1-2.89,2.51,4.07,4.07,0,0,1-3.89,0,4.93,4.93,0,0,1-2-3.16,7,7,0,0,0,2.41,2.48,3.46,3.46,0,0,0,3.13-.1,7.16,7.16,0,0,0,2.63-2.15,9,9,0,0,0,1.55-3.14Z"/><path d="M216.25,333.61a8.16,8.16,0,0,1,.9,2.58,6.48,6.48,0,0,1-.13,2.86,4.15,4.15,0,0,1-1.9,2.42,6.1,6.1,0,0,1-2.84.78,10.09,10.09,0,0,1-5.34-1.41,13.18,13.18,0,0,1-4-3.52l.12-.11a18.17,18.17,0,0,0,4.38,2.7,10.75,10.75,0,0,0,2.38.74,7.89,7.89,0,0,0,2.41.17,5.13,5.13,0,0,0,2.17-.63,3,3,0,0,0,1.29-1.61,13.23,13.23,0,0,0,.44-4.92Z"/><path d="M121.82,322.38a24.7,24.7,0,0,0,.68,9.32,12.31,12.31,0,0,0,2.12,4,8.32,8.32,0,0,0,3.58,2.66,12.59,12.59,0,0,0,4.53.71c.78,0,1.57-.06,2.36-.08l2.38-.23c3.18-.36,6.36-.86,9.55-1.32,6.37-.93,12.76-1.76,19.17-2.37a172.84,172.84,0,0,1,19.31-1c3.24.06,6.44.39,9.62.14a85.34,85.34,0,0,0,9.51-1.35c1.58-.29,3.17-.6,4.77-.81a12.09,12.09,0,0,1,4.9.11,3.58,3.58,0,0,1,2,1.52,3.82,3.82,0,0,1,.4,2.49,18.09,18.09,0,0,1-1.59,4.61c-1.36,2.93-2.8,5.8-4,8.78a52.72,52.72,0,0,0-2.78,9.2,51,51,0,0,0-.15,19.15l-.14,0a51.18,51.18,0,0,1,0-19.23,53.53,53.53,0,0,1,2.72-9.27c1.16-3,2.59-5.91,3.92-8.83a17.25,17.25,0,0,0,1.52-4.49,3.33,3.33,0,0,0-.35-2.18,3.12,3.12,0,0,0-1.76-1.29,11.64,11.64,0,0,0-4.67-.05c-1.58.22-3.16.54-4.74.84a85.08,85.08,0,0,1-9.58,1.43c-3.24.28-6.47,0-9.67-.06A171.6,171.6,0,0,0,166.28,336c-6.39.66-12.76,1.54-19.11,2.52-3.18.47-6.36,1-9.57,1.39l-2.42.25c-.82,0-1.63.12-2.46.1a13.58,13.58,0,0,1-4.94-.74,9.59,9.59,0,0,1-4.1-3,13.4,13.4,0,0,1-2.36-4.44,25.64,25.64,0,0,1-.82-9.8Z"/><polygon class="cls-5" points="241.2 307.81 254.4 273.81 314 269.84 280.98 278.26 241.2 307.81"/><circle class="cls-6" cx="259.27" cy="279.5" r="1.24"/><line class="cls-7" x1="251.76" y1="293.62" x2="241.2" y2="307.81"/><path d="M249.61,351.66a42.39,42.39,0,0,0-6.29,5.2,39,39,0,0,0-2.73,3,22.74,22.74,0,0,1-2.81,3.17,13.22,13.22,0,0,1-3.79,2.07,14,14,0,0,1-4.23.86,8.53,8.53,0,0,1-2.23-.22,4.06,4.06,0,0,1-2.09-1.24,3.18,3.18,0,0,1-.72-2.35,5.22,5.22,0,0,1,.62-2.13l.64.2c-.11,1.32-.17,2.68.49,3.41a4.12,4.12,0,0,0,3.26,1,12.46,12.46,0,0,0,3.83-.75,11.81,11.81,0,0,0,3.44-1.82,22.12,22.12,0,0,0,2.72-2.94,39.3,39.3,0,0,1,2.89-3,42.41,42.41,0,0,1,6.64-5Z"/><path d="M236.71,365.17a16,16,0,0,1-5.23,10.26,17.23,17.23,0,0,1-5.11,3.17,7.63,7.63,0,0,1-6,0l-.05-.66a23.18,23.18,0,0,1,4.76-2.51,19.15,19.15,0,0,0,4.37-2.44,19.84,19.84,0,0,0,3.69-3.53,26.59,26.59,0,0,0,2.9-4.49Z"/><path d="M224.26,368.25c0,.29-.08.52-.06.78a.9.9,0,0,0,.16.59c.2.2.7.14,1.16,0a19,19,0,0,0,2.81-1.29c1.87-1,3.72-2,5.74-2.86l.35.56a22.8,22.8,0,0,1-5.5,3.52,11.29,11.29,0,0,1-3.22,1,3.63,3.63,0,0,1-.93,0,1.25,1.25,0,0,1-.91-.57,1.41,1.41,0,0,1-.1-1,1.85,1.85,0,0,1,.33-.79Z"/><circle class="cls-8" cx="144.02" cy="286.58" r="1.82"/><path class="cls-9" d="M120.25,304.58A29.18,29.18,0,0,0,138.58,317"/><path d="M262.64,380c-.12,2.55-.34,5.08-.6,7.61s-.55,5-.89,7.56-.72,5-1.09,7.53a23.48,23.48,0,0,1-2.21,7.35l0-.17h0a20.65,20.65,0,0,1,.82,12.07,30.28,30.28,0,0,1-5.12,11,33.58,33.58,0,0,1-4,4.62,22.87,22.87,0,0,1-4.86,3.7,9.17,9.17,0,0,1-2.92,1.09,3.33,3.33,0,0,1-1.65-.12,2.43,2.43,0,0,1-1.3-1.07,7.48,7.48,0,0,1-.88-3,22.36,22.36,0,0,1-.06-3.06l.66,0a22.59,22.59,0,0,0,.06,3,6.7,6.7,0,0,0,.77,2.74,2.07,2.07,0,0,0,2.3.89,8.42,8.42,0,0,0,2.71-1,23.05,23.05,0,0,0,4.72-3.6,33.66,33.66,0,0,0,3.9-4.52,29.67,29.67,0,0,0,5-10.76,19.86,19.86,0,0,0-.79-11.69h0l0-.18a23.43,23.43,0,0,1,.19-7.67c.42-2.5.82-5,1.3-7.49s1-5,1.51-7.47,1.12-4.95,1.79-7.41Z"/><path d="M238,400.71a22.16,22.16,0,0,0-.86,3.8,12.67,12.67,0,0,0,.09,3.84,10.81,10.81,0,0,0,3.51,6.48,6.42,6.42,0,0,0,3.14,1.5,7.53,7.53,0,0,0,3.49-.46,10.54,10.54,0,0,0,3.18-1.86,15.72,15.72,0,0,1,3.05-2.4l.54.38a5.67,5.67,0,0,1-2.4,3.47,12.78,12.78,0,0,1-3.74,2.16,8.6,8.6,0,0,1-4.4.47,8.13,8.13,0,0,1-4-2,12.2,12.2,0,0,1-3.65-7.53,13.88,13.88,0,0,1,.1-4.17,12.16,12.16,0,0,1,1.29-3.91Z"/><path d="M256.8,417c-.29.73-.63,1.43-1,2.12s-.75,1.36-1.17,2a30.7,30.7,0,0,1-2.81,3.74,24.41,24.41,0,0,1-7.53,5.91,9.91,9.91,0,0,1-5.29,1.11,5.08,5.08,0,0,1-2.92-1.32,6.4,6.4,0,0,1-1.54-2.47,13,13,0,0,1-.56-4.91,22.07,22.07,0,0,1,.74-4.61l.66.06c.14,1.52.28,3,.53,4.44.13.72.29,1.42.46,2.09a9.29,9.29,0,0,0,.73,1.84,3.38,3.38,0,0,0,1,1.24,1.82,1.82,0,0,0,.56.24,2.59,2.59,0,0,0,.65.12,7.93,7.93,0,0,0,3.39-1.05,40.33,40.33,0,0,0,6.81-5l3.31-2.93c.54-.52,1.12-1,1.68-1.51s1.14-1,1.75-1.49Z"/><path d="M271.56,384.92a130.54,130.54,0,0,1,8.34,20c.57,1.73,1.1,3.46,1.57,5.23a33.33,33.33,0,0,1,1,5.44,8.06,8.06,0,0,1-.17,3,2.53,2.53,0,0,1-1.18,1.58,2.23,2.23,0,0,1-1.05.26,2.81,2.81,0,0,1-.91-.14,12.3,12.3,0,0,1-2.62-1.29c-.77-.47-1.52-.93-2.28-1.32-1.51-.77-3.13-1.22-4.5-.64s-2.19,2-2.76,3.65-1,3.4-1.51,5.14a43.44,43.44,0,0,1-1.82,5.17c-2.88,6.82-8.16,12.29-14.07,16.42l-.43-.59a45.34,45.34,0,0,0,7.79-7.3,34,34,0,0,0,5.46-9.05,43.16,43.16,0,0,0,1.68-5c.48-1.72.86-3.48,1.45-5.25a10.54,10.54,0,0,1,1.21-2.63,5.26,5.26,0,0,1,2.38-2,5.44,5.44,0,0,1,3.1-.33,10.39,10.39,0,0,1,2.78,1c.85.42,1.63.9,2.4,1.36a11.05,11.05,0,0,0,2.21,1.1.91.91,0,0,0,.66,0,1,1,0,0,0,.34-.57,6.67,6.67,0,0,0,.09-2.35,33.65,33.65,0,0,0-1-5.14c-.46-1.71-1-3.42-1.57-5.11-2.31-6.78-5-13.43-7.28-20.29Z"/><path d="M278.84,423.94a18.46,18.46,0,0,1-.52,4.44,22.17,22.17,0,0,1-1.44,4.25,27.25,27.25,0,0,1-5,7.46,31.35,31.35,0,0,1-7,5.6,28.13,28.13,0,0,1-8.2,3.26l-.28-.67a67.38,67.38,0,0,0,6.88-4.9,46.82,46.82,0,0,0,5.9-5.7,55.81,55.81,0,0,0,4.79-6.6c.73-1.16,1.41-2.35,2.11-3.56l2.07-3.75Z"/><path d="M282.44,422.86a12.57,12.57,0,0,1,3.59,7.21,14,14,0,0,1-1.38,8.36,14.51,14.51,0,0,1-5.81,6.08,12.76,12.76,0,0,1-7.88,1.66l-.13-.72a30.11,30.11,0,0,0,5.72-4.12,18.68,18.68,0,0,0,3.83-5.07,16.62,16.62,0,0,0,1.74-6,27.41,27.41,0,0,0-.32-7Z"/><ellipse class="cls-10" cx="275.76" cy="341.31" rx="26.99" ry="44.41"/></g></g></svg>