<svg xmlns="http://www.w3.org/2000/svg" viewBox="0 0 439.76 775.87"><defs><style>.cls-1{fill:#fff;}.cls-2{fill:#080051;}.cls-3{fill:#06016d;}.cls-4{fill:#d92800;}.cls-5{fill:#0a0aff;}.cls-6{fill:#00eeeb;}.cls-7{fill:#610d00;}.cls-8{fill:#0000b0;}.cls-9{fill:#2700a2;}.cls-10{opacity:0.8;}.cls-11{fill:#fff01d;}.cls-12{fill:#de2900;}.cls-13{fill:none;stroke:#000;stroke-miterlimit:10;stroke-width:0.24px;}</style></defs><g id="Layer_2" data-name="Layer 2"><g id="Layer_1-2" data-name="Layer 1"><rect class="cls-1" width="439.76" height="775.87" rx="61.92"/><path class="cls-2" d="M129.81,272.6c4.54-12.24,5.52-18.21,12.08-22.74,13.51-9.34,34.6-1.48,37.19-.48,11.88,4.6,11,9.08,19.66,11.14,17.24,4.07,23.84-12.84,41-11.14,18.48,1.84,20.15,22.4,42.17,25.59,13.87,2,17.38-5.56,27-1,11.53,5.52,20.67,23.13,19.67,36.72-.18,2.33-.71,5.32.47,9.24,2.48,8.24,8.94,8.69,11.13,14,4.35,10.49-16.38,20.15-15.87,37.19.39,12.88,12.43,14.6,11.61,26.06-.78,10.92-11.88,11.65-26.06,31.27-10.32,14.28-8.72,19.81-15.87,23.21-10.25,4.88-18.19-4.27-40-11.13-7.13-2.24-36.52-10.76-68.23-4.26-18.58,3.8-23.59,9.82-35.77,6.63-11.71-3.07-23.51-13-27-25.58-4.38-15.86,8.37-21.52,7.82-40C130,351.6,105,348.79,104.7,325.19,104.48,309.26,115.85,310.19,129.81,272.6Z"/><path class="cls-3" d="M127.89,288.85c4.54-12.24,5.52-18.21,12.08-22.74,13.51-9.33,34.6-1.48,37.19-.48,11.88,4.6,11,9.08,19.66,11.14,17.25,4.07,23.84-12.84,41-11.14C256.28,267.47,258,288,280,291.22c13.87,2,17.38-5.56,27-1,11.52,5.52,20.67,23.13,19.66,36.72-.17,2.34-.71,5.32.47,9.24,2.48,8.24,8.95,8.69,11.14,14,4.34,10.49-16.39,20.15-15.88,37.19.39,12.88,12.43,14.6,11.61,26.06-.78,10.93-11.88,11.65-26.06,31.27-10.31,14.28-8.71,19.81-15.87,23.22-10.24,4.87-18.18-4.28-40-11.14-7.13-2.23-36.51-10.75-68.22-4.26-18.59,3.8-23.6,9.82-35.77,6.63-11.71-3.07-23.52-12.95-27-25.58-4.38-15.86,8.37-21.52,7.82-40-.77-25.7-25.74-28.51-26.06-52.11C102.57,325.51,113.93,326.44,127.89,288.85Z"/><path class="cls-4" d="M129.79,307.56c4.54-12.23,5.52-18.2,12.08-22.74,13.5-9.33,34.6-1.47,37.19-.47,11.88,4.59,11,9.08,19.66,11.13,17.24,4.07,23.84-12.84,41-11.13,18.47,1.84,20.15,22.4,42.17,25.58,13.87,2,17.37-5.55,27-.94,11.53,5.51,20.67,23.13,19.66,36.71-.17,2.34-.7,5.33.48,9.24,2.48,8.24,8.94,8.7,11.13,14,4.34,10.48-16.38,20.14-15.87,37.19.39,12.87,12.43,14.59,11.61,26.06-.78,10.92-11.88,11.64-26.06,31.27-10.32,14.27-8.72,19.81-15.87,23.21-10.25,4.87-18.19-4.27-40-11.13-7.12-2.24-36.51-10.76-68.22-4.27-18.58,3.81-23.6,9.83-35.77,6.64-11.71-3.08-23.52-13-27-25.59-4.38-15.86,8.37-21.51,7.81-40-.77-25.7-25.74-28.52-26-52.12C104.46,344.23,115.83,345.16,129.79,307.56Z"/><path class="cls-5" d="M153.28,340.94c3.4-9.15,4.13-13.61,9-17,10.1-7,25.88-1.1,27.81-.35,8.89,3.43,8.2,6.79,14.71,8.33,12.89,3,17.83-9.6,30.65-8.33C249.3,325,250.56,340.33,267,342.71c10.38,1.5,13-4.15,20.2-.71,8.62,4.13,15.46,17.3,14.7,27.46a16.73,16.73,0,0,0,.36,6.91c1.85,6.17,6.69,6.51,8.32,10.46,3.25,7.84-12.25,15.06-11.87,27.81.29,9.63,9.3,10.92,8.68,19.49-.58,8.17-8.88,8.71-19.48,23.38-7.72,10.68-6.52,14.82-11.87,17.37-7.67,3.64-13.61-3.2-29.94-8.33-5.33-1.67-27.31-8.05-51-3.19-13.89,2.85-17.64,7.35-26.75,5-8.75-2.3-17.59-9.69-20.19-19.13-3.28-11.86,6.26-16.09,5.84-29.94-.57-19.22-19.25-21.33-19.48-39C134.35,368.36,142.85,369.06,153.28,340.94Z"/><path class="cls-6" d="M170.23,356.92c2.46-6.61,3-9.83,6.53-12.28,7.29-5,18.68-.79,20.08-.25,6.41,2.48,5.92,4.9,10.62,6,9.31,2.2,12.87-6.93,22.13-6,10,1,10.88,12.09,22.76,13.81,7.5,1.08,9.39-3,14.59-.51,6.22,3,11.16,12.49,10.61,19.83a12,12,0,0,0,.26,5c1.34,4.45,4.83,4.7,6,7.55,2.35,5.66-8.85,10.88-8.57,20.08.21,7,6.71,7.89,6.27,14.08-.42,5.89-6.41,6.29-14.07,16.88-5.57,7.71-4.71,10.7-8.57,12.54-5.54,2.63-9.82-2.31-21.62-6-3.85-1.2-19.72-5.8-36.84-2.3-10,2.06-12.74,5.31-19.31,3.58-6.33-1.65-12.7-7-14.59-13.81-2.36-8.56,4.52-11.62,4.22-21.62-.41-13.88-13.9-15.4-14.07-28.14C156.56,376.72,162.7,377.22,170.23,356.92Z"/><path class="cls-7" d="M181.3,428.75c-7.56,8.73-5.3,24,0,33.87,9.33,17.35,29.34,20.11,31.51,20.38,19.34,2.35,33.14-9.65,36.71-13,9.93-9.42,11.6-21.76,14.93-46.43.37-2.73.76-6.79-1.42-8.29-1.69-1.17-4.71-.69-6.4.94-2.84,2.75.08,6.88-2.37,9.95-1.83,2.29-5.59,2.27-13,2.13-8.75-.16-9.58-1.58-13.5-.47-5.44,1.54-5.09,4.64-10.66,6.4-.56.17-8.29,2.49-14.45-1.42-5.36-3.4-4.61-8.37-8.77-9.72C189.54,421.67,184.09,425.53,181.3,428.75Z"/><path class="cls-8" d="M167.8,420.22c-7.28-.74-15.22,15.39-16.82,28.43-.4,3.22-1.15,9.31,1.42,10.66,3.72,1.95,11.88-7.34,14-9.72,5.55-6.32,10.54-12,9.23-19.18C174.87,426.3,171.89,420.64,167.8,420.22Z"/><path class="cls-9" d="M269.66,415.72c9.39,17.57,8.31,24.07,14.92,26.53.27.1,6,2.18,8.77-.47,5.29-5.16-2.72-26.46-16.82-33.17-2.73-1.3-8.22-3.25-9.71-1.42C265.64,408.64,267.52,411.72,269.66,415.72Z"/><g class="cls-10"><path class="cls-11" d="M179.47,346.9a2.44,2.44,0,0,1,.12-.52,2.14,2.14,0,0,1,.23-.38,2.32,2.32,0,0,1,.52-.45,5.28,5.28,0,0,1,1-.5,19.69,19.69,0,0,1,2.39-.63c1.74-.35,3.76-.65,5.84-.89a77.72,77.72,0,0,1,11.22-.7c2.06,0,3.62.15,4.78.26,1,.12-1.29-.14-4.78-.26a54.52,54.52,0,0,0-5.58.19,55,55,0,0,1,7.16.24c1.35,0,2.73.11,4.12.22,6.12.48,12,1.39,18,2.46,2.17.39,6.9,1.23,9,1.76-4.36-.9-8.77-1.64-13.18-2.33s-8.82-1.31-13.27-1.65l.72.09c4.66.43,9.29,1.14,13.92,1.93.79.12,1.58.26,2.4.41l-2.4-.41c-2.06-.32-4.07-.59-6.31-.87-1.39-.2-3-.46-4.36-.61l-3.25-.45-2.09-.18h-.62c.86.21,5.67.75,10.59,1.6s10,1.79,11.44,2c2.3.35,4.45.43,7,.92.85.17,1.55.41,2.21.49a2.85,2.85,0,0,1,.73.06,23.85,23.85,0,0,1,2.9,1c.15.06.27.19.13.38a1.37,1.37,0,0,1-.79.23,5.19,5.19,0,0,1-.78,0c-.43,0-.64-.08-.58,0,.47.46,0,.16-.7.19a15,15,0,0,1-1.56.31c-1.79,0-2.3.19-4.36.34-3.06.27-3.73,0-6.46.31-.33.05-4.6.25-4.6.25-3.33-.07-5.41.12-8-.34-3,.18-7-.42-10.19-.63a46.37,46.37,0,0,1-7.24-1.14c-.79-.13-1.39-.18-1.84-.31s-1.59-.09-2.37-.24l.21-.1-1-.21c-.26-.05-.18-.09-.11-.12s.29-.14-.16-.28l-3.26-.79c-1.11-.16-2.19-.35-3.18-.59a.61.61,0,0,1-.31.08,7.12,7.12,0,0,1-.81-.24c-.19.05-.22.21-.36.23s-.45.2-.73.14-.47-.4-.65-.21a.52.52,0,0,0,0,.21.74.74,0,0,0,0,.18l.1.17a1.27,1.27,0,0,0,.3.35,2.32,2.32,0,0,0,.4.3c.56.36,1.23.66,1.63.87.18.12-.32.1-.57.15,1.14.38,1.17.52.66.51l.54.18-.32.1a37.8,37.8,0,0,0,8.88,2c.61.06,1.63.09,2.31.1.33,0,1.06.17,1.33.21.48-.07.43-.23.65-.34,2,.38,6.53,1,6.43.49,1.67.15,2-.05,3.76,0,2.31.11,5.24.24,8.12.31l4.64.08h1.65c4.08,0,7.77,0,11.34-.14,1.8-.06,3.53-.14,5.35-.31a19.42,19.42,0,0,0,3.65-.61,5,5,0,0,0,1.27-.56,1.49,1.49,0,0,0,.78-.94,1.79,1.79,0,0,0-.48-.91,5.42,5.42,0,0,0-.88-.64,12.11,12.11,0,0,0-2.78-1l-.8-.22-.71-.17-1.14-.24c-.78-.16-1.56-.31-2.36-.44-5.57-.95-11.28-1.76-16.8-2.56a142.77,142.77,0,0,0-15.78-1.52,66.5,66.5,0,0,0-6.9.19c-2.12.15-4.07.34-5.8.54a32.13,32.13,0,0,0-7.55,1.53,5.36,5.36,0,0,0-.87.57l-.23.21a3.47,3.47,0,0,0-.25.29,2.08,2.08,0,0,0-.23.42A1.88,1.88,0,0,0,179.47,346.9Z"/></g><path class="cls-1" d="M190.3,405.53c2.25-2.11,6.54,2.63,12.79,1.66,7.73-1.19,7.66-9.43,15.16-11.13s10.73,5.51,19.19,3.55c5.67-1.31,7.68-5.34,9.71-4.26,2.74,1.44,2.58,10.5-1.42,17-8.22,13.48-30,12-34.35,11.61-4.75-.45-15.34-1.45-19.89-9C189.62,411.92,188.48,407.25,190.3,405.53Z"/><path class="cls-12" d="M230.75,364.79c-1.95,1.94-4.25,4.23-3.61,6,.74,2.13,5.29,3,8.6,1.88,6.69-2.23,9.64-12.9,7.39-14.79C241.07,356.19,234.16,361.38,230.75,364.79Z"/><path class="cls-12" d="M197.87,370c2,1.92,4.26,4.17,3.63,5.95-.74,2.09-5.28,2.91-8.59,1.82-6.7-2.22-9.68-12.7-7.44-14.55C187.52,361.52,194.44,366.64,197.87,370Z"/><path class="cls-1" d="M189.12,384.92c-2.45,4.52-2.41,7.05-2.37,7.82a8.78,8.78,0,0,0,1.66,5.21c2.18,2.78,6.44,3.76,9.71,2.85,4.36-1.22,3.86-4.91,9.71-9.24a24,24,0,0,1,10.66-4.5,20.61,20.61,0,0,1,11.13,1.18c4,1.7,4.49,3.66,7.35,3.79,3.19.14,6.89-2.12,7.82-5,1.62-5-5.29-11.59-10.43-14.69-13.36-8.06-31.38-2.43-38.85,4.26A32.33,32.33,0,0,0,189.12,384.92Z"/><path class="cls-13" d="M211.38,414.53a18.18,18.18,0,0,0,9,.48,18.38,18.38,0,0,0,9.47-5.21"/><circle cx="227.02" cy="379" r="3.55"/><circle cx="205.46" cy="379" r="3.55"/><rect x="199.34" y="485.48" width="12.8" height="44.8" rx="6.4"/><rect x="224.36" y="485.48" width="12.8" height="44.8" rx="6.4"/></g></g></svg>