<svg xmlns="http://www.w3.org/2000/svg" viewBox="0 0 139 208.5"><defs><style>.cls-1{fill:#0acf83;}.cls-2{fill:#a259ff;}.cls-3{fill:#f24e1e;}.cls-4{fill:#ff7262;}.cls-5{fill:#1abcfe;}</style></defs><g id="Layer_2" data-name="Layer 2"><g id="Layer_1-2" data-name="Layer 1"><path class="cls-1" d="M34.75,208.5A34.77,34.77,0,0,0,69.5,173.75V139H34.75a34.75,34.75,0,0,0,0,69.5Z"/><path class="cls-2" d="M0,104.25A34.77,34.77,0,0,1,34.75,69.5H69.5V139H34.75A34.77,34.77,0,0,1,0,104.25Z"/><path class="cls-3" d="M0,34.75A34.77,34.77,0,0,1,34.75,0H69.5V69.5H34.75A34.77,34.77,0,0,1,0,34.75Z"/><path class="cls-4" d="M69.5,0h34.75a34.75,34.75,0,0,1,0,69.5H69.5Z"/><path class="cls-5" d="M139,104.25A34.75,34.75,0,1,1,104.25,69.5,34.77,34.77,0,0,1,139,104.25Z"/></g></g></svg>