<svg xmlns="http://www.w3.org/2000/svg" viewBox="0 0 190.79 190.79"><defs><style>.cls-1{fill:#de4c36;}</style></defs><g id="Layer_2" data-name="Layer 2"><g id="Layer_1-2" data-name="Layer 1"><path class="cls-1" d="M187.19,86.9,103.89,3.6a12.28,12.28,0,0,0-17.37,0L69.22,20.9,91.16,42.84a14.59,14.59,0,0,1,18.48,18.6l21.15,21.15A14.6,14.6,0,1,1,122,90.83L102.31,71.11V123a14.62,14.62,0,1,1-16.81,2.77,14.46,14.46,0,0,1,4.79-3.19V70.2A14.21,14.21,0,0,1,85.5,67a14.6,14.6,0,0,1-3.15-16L60.72,29.4,3.6,86.51a12.29,12.29,0,0,0,0,17.38l83.3,83.3a12.29,12.29,0,0,0,17.38,0l82.91-82.91a12.29,12.29,0,0,0,0-17.38"/></g></g></svg>