<svg xmlns="http://www.w3.org/2000/svg" viewBox="0 0 196 196"><defs><style>.cls-1{fill:#f7f241;}.cls-2{fill:#323330;}</style></defs><g id="Layer_2" data-name="Layer 2"><g id="Layer_1-2" data-name="Layer 1"><g id="Layer_2-2" data-name="Layer 2"><g id="Layer_1-2-2" data-name="Layer 1-2"><path class="cls-1" d="M0,0H196V196H0Z"/><path class="cls-2" d="M180,149.26c-1.43-8.94-7.26-16.46-24.53-23.47-6-2.74-12.69-4.72-14.68-9.27-.69-2.65-.8-4.13-.36-5.74,1.29-5.2,7.49-6.82,12.41-5.33a13.66,13.66,0,0,1,8,7.4c8.46-5.5,8.44-5.45,14.35-9.2a36.81,36.81,0,0,0-4.74-6.34c-5.08-5.68-12-8.6-23.1-8.38l-5.78.74c-5.49,1.38-10.81,4.31-13.9,8.2-9.28,10.52-6.63,28.95,4.66,36.54,11.13,8.34,27.49,10.24,29.55,18.05,2,9.56-7,12.65-16,11.55-6.64-1.37-10.31-4.76-14.31-10.88-7.34,4.25-7.34,4.25-14.89,8.58,1.79,3.92,3.67,5.69,6.68,9.08,14.19,14.43,49.72,13.69,56.09-8.11C179.62,161.94,181.33,157,180,149.26Zm-73.4-59.18H88.22c0,15.81-.08,31.56-.08,47.42,0,10.08.52,19.32-1.11,22.15-2.69,5.57-9.62,4.88-12.8,3.8-3.23-1.58-4.87-3.84-6.77-7a8.86,8.86,0,0,0-1-1.68q-7.47,4.53-14.88,9.11a29.56,29.56,0,0,0,10.81,12.37c7,4.19,16.38,5.5,26.19,3.22,6.39-1.86,11.91-5.72,14.8-11.58,4.17-7.7,3.27-17,3.24-27.31.09-16.81,0-33.62,0-50.48Z"/></g></g></g></g></svg>