<svg xmlns="http://www.w3.org/2000/svg" viewBox="0 0 196.97 199.25"><defs><style>.cls-1{fill:#f4f4f2;}.cls-2{fill:#fff;}</style></defs><g id="Layer_2" data-name="Layer 2"><g id="Layer_1-2" data-name="Layer 1"><path class="cls-1" d="M122,1.79A139.08,139.08,0,0,0,97.17,0a126.73,126.73,0,0,0-22.76,2C54.18,5.59,50.63,12.93,50.63,26.85v18.2H98.18v6.08H32.9c-13.66,0-25.79,8.34-29.58,24-4.3,18.22-4.55,29.35,0,48.31,3.29,14.19,11.39,24,25.29,24H45.08V125.71c0-15.68,13.66-29.59,29.58-29.59H122a24,24,0,0,0,23.77-24.28V26.58C145.74,13.69,134.85,4.07,122,1.79ZM71.36,32.64a9,9,0,0,1-8.85-9.1,8.85,8.85,0,0,1,8.85-9.1,9.11,9.11,0,0,1,0,18.2Z"/><ellipse cx="71.36" cy="23.54" rx="8.85" ry="9.1"/><path d="M193.27,74.64c-3.29-13.66-9.87-24-23.78-24h-18v21c0,16.44-13.91,30.09-29.85,30.09H74.41c-12.9,0-23.78,11.13-23.78,24.28v45.28c0,12.9,11.13,20.49,23.78,24.28,14.92,4.55,29.33,5.32,47.55,0,11.87-3.54,23.78-10.39,23.78-24.29V153H98.17V147h71.32c13.67,0,19-9.6,23.78-24C198.32,108,198.08,93.87,193.27,74.64Zm-68.55,90.54a9.1,9.1,0,1,1-8.85,9.35v-.25A9,9,0,0,1,124.72,165.18Z"/><ellipse class="cls-2" cx="124.72" cy="174.28" rx="8.85" ry="9.1"/></g></g></svg>