<svg xmlns="http://www.w3.org/2000/svg" viewBox="0 0 194.58 174.94"><defs><style>.cls-1{fill:#fff;}.cls-2{fill:#53c1de;}</style></defs><g id="Layer_2" data-name="Layer 2"><g id="Layer_1-2" data-name="Layer 1"><path class="cls-1" d="M0,87.16c0,14.69,14.35,28.41,37,36.14-4.52,22.74-.81,41.07,11.58,48.22,12.73,7.34,31.69,2.26,49.69-13.48,17.55,15.1,35.28,21,47.65,13.88,12.72-7.36,16.59-26.93,12-50.39,23.56-7.79,36.74-19.48,36.74-34.37,0-14.36-14.38-26.77-36.69-34.46,5-24.42.76-42.3-12.14-49.74C133.32-4.21,115.38,2,97.58,17.53,79.05,1.09,61.29-3.94,48.41,3.52,36,10.71,32.44,29.38,37,52.54,15.11,60.16,0,72.86,0,87.16Z"/><path class="cls-2" d="M153,60.33c-1.79-.61-3.65-1.2-5.57-1.75.32-1.28.61-2.55.86-3.79,4.22-20.45,1.46-36.91-7.94-42.33-9-5.2-23.76.22-38.65,13.18-1.43,1.24-2.86,2.56-4.3,3.94-1-.91-1.91-1.79-2.86-2.64C78.9,13.08,63.26,7.25,53.87,12.68c-9,5.22-11.68,20.7-7.89,40.07q.56,2.8,1.28,5.72c-2.21.63-4.35,1.3-6.39,2-18.3,6.38-30,16.38-30,26.75,0,10.71,12.54,21.45,31.6,28,1.5.52,3.06,1,4.67,1.46-.52,2.1-1,4.16-1.36,6.17C42.19,141.86,45,157,54,162.15c9.28,5.35,24.85-.15,40-13.4q1.8-1.58,3.61-3.32,2.34,2.25,4.67,4.26c14.69,12.64,29.19,17.74,38.17,12.54,9.26-5.36,12.28-21.6,8.37-41.35-.3-1.51-.65-3-1-4.62,1.09-.32,2.17-.66,3.21-1,19.81-6.56,32.7-17.17,32.7-28,0-10.41-12.06-20.47-30.72-26.9Z"/><path class="cls-1" d="M148.67,108.25c-.94.31-1.91.61-2.9.91A173.82,173.82,0,0,0,137,87.26a174.43,174.43,0,0,0,8.41-21.57q2.65.77,5.13,1.62c16,5.51,25.75,13.65,25.75,19.92,0,6.68-10.53,15.35-27.64,21Zm-7.1,14.06c1.73,8.74,2,16.63.83,22.81-1,5.55-3.09,9.24-5.65,10.73-5.45,3.15-17.1-.95-29.66-11.76-1.43-1.24-2.89-2.56-4.34-4a172.09,172.09,0,0,0,14.48-18.39,171.26,171.26,0,0,0,23.41-3.61c.35,1.42.66,2.82.93,4.18Zm-71.77,33c-5.32,1.88-9.56,1.93-12.12.46-5.45-3.15-7.72-15.28-4.62-31.56q.52-2.81,1.26-5.74a173,173,0,0,0,23.28,3.37,179.35,179.35,0,0,0,14.84,18.33c-1.1,1.06-2.2,2.08-3.29,3-6.71,5.86-13.43,10-19.35,12.11ZM44.87,108.21c-8.42-2.88-15.38-6.63-20.15-10.71-4.29-3.67-6.45-7.32-6.45-10.27,0-6.29,9.38-14.32,25-19.78q2.85-1,6-1.87a175.37,175.37,0,0,0,8.42,21.83,178.8,178.8,0,0,0-8.53,22.13c-1.47-.42-2.9-.87-4.27-1.33Zm8.36-56.88C50,34.73,52.14,22.21,57.57,19.07c5.78-3.35,18.56,1.43,32,13.39.86.77,1.72,1.57,2.59,2.39A176.81,176.81,0,0,0,77.48,53.07a179.78,179.78,0,0,0-23.06,3.58c-.45-1.8-.85-3.58-1.19-5.32Zm74.54,18.41q-2.56-4.44-5.26-8.65c5.52.7,10.8,1.63,15.76,2.76a157.22,157.22,0,0,1-5.53,14.88q-2.36-4.47-5-9ZM97.37,40.13a155.85,155.85,0,0,1,10.17,12.28c-3.38-.16-6.8-.25-10.25-.25s-6.81.08-10.17.24A159.82,159.82,0,0,1,97.37,40.13ZM66.78,69.79q-2.57,4.44-4.88,8.93c-2.15-5.1-4-10.11-5.49-14.95,4.93-1.1,10.19-2,15.67-2.69q-2.73,4.24-5.3,8.71Zm5.46,44.11a157.66,157.66,0,0,1-15.93-2.56c1.53-4.93,3.41-10,5.6-15.25,1.55,3,3.18,6,4.9,8.94h0q2.63,4.53,5.43,8.87Zm25.34,20.95c-3.5-3.78-7-7.95-10.4-12.45q5,.19,10.11.2t10.43-.23a158,158,0,0,1-10.14,12.48Zm35.23-39a154.83,154.83,0,0,1,5.8,15.2,159.27,159.27,0,0,1-16.12,2.75c1.8-2.84,3.57-5.78,5.31-8.79s3.43-6.11,5-9.16Zm-11.41,5.47c-2.7,4.68-5.47,9.15-8.28,13.37-5.13.37-10.43.56-15.83.56s-10.61-.17-15.65-.5c-2.92-4.27-5.76-8.76-8.44-13.39h0C70.52,96.7,68.06,92,65.83,87.41c2.23-4.65,4.68-9.32,7.35-13.94h0c2.66-4.63,5.47-9.09,8.37-13.34,5.14-.39,10.41-.6,15.74-.6h0c5.35,0,10.63.21,15.76.6,2.86,4.22,5.65,8.67,8.33,13.3s5.2,9.31,7.45,13.86c-2.24,4.63-4.73,9.31-7.43,14Zm15.23-82.44c5.79,3.34,8,16.8,4.4,34.45-.23,1.12-.49,2.27-.77,3.43a178.58,178.58,0,0,0-23.11-3.65,174.74,174.74,0,0,0-14.6-18.23c1.32-1.28,2.65-2.5,4-3.64,12.76-11.11,24.68-15.49,30.11-12.36Z"/><path class="cls-2" d="M93.24,71.8A15.43,15.43,0,1,1,77.81,87.23,15.43,15.43,0,0,1,93.24,71.8"/></g></g></svg>