<svg xmlns="http://www.w3.org/2000/svg" viewBox="0 0 203.41 197.87"><defs><style>.cls-1{fill:#2e001e;}.cls-2{fill:#ff2bc2;}</style></defs><g id="Layer_2" data-name="Layer 2"><g id="Layer_1-2" data-name="Layer 1"><path class="cls-1" d="M19.8,0H183.61a19.79,19.79,0,0,1,19.8,19.8V178.07a19.8,19.8,0,0,1-19.8,19.8H19.8A19.8,19.8,0,0,1,0,178.07V19.8A19.79,19.79,0,0,1,19.8,0Z"/><path class="cls-2" d="M151.91,81.64a12.78,12.78,0,0,0-5.36-.92c-11.65,0-19.42,9-19.42,23.85,0,17,8,23.86,18.31,23.86a17.45,17.45,0,0,0,6.38-1V81.64Zm-41.42,23.67c0-21.54,13.87-38.37,36.61-38.37a39.88,39.88,0,0,1,4.81.19v-24a.93.93,0,0,1,.93-.93h14.88c.74,0,.93.28.93.74v84.51a66.13,66.13,0,0,0,.46,9.06c0,.65,0,.74-.55,1a55.08,55.08,0,0,1-23.67,5.36c-20.07,0-34.4-12.39-34.4-37.54ZM79,90.33l25.89,50.21c.46.74.19,1.48-.55,1.48H88.21a1.81,1.81,0,0,1-1.94-1.2c-5.92-12.21-11.93-24.87-18.13-38H68c-5.55,12.39-11.65,25.89-17.57,38.09a1.77,1.77,0,0,1-1.66,1H33.38c-.93,0-1-.74-.56-1.3L58.16,91.91,33.66,43.46a.82.82,0,0,1,.64-1.39H50.21c.92,0,1.38.18,1.66,1C57.7,55.38,63.61,67.5,69.16,79.89h.19c5.36-12.21,11.28-24.51,16.92-36.62.46-.74.74-1.2,1.66-1.2h14.89c.74,0,1,.55.55,1.39L79,90.33Z"/></g></g></svg>